<?xml version="1.0" standalone="no"?>
<!DOCTYPE svg PUBLIC "-//W3C//DTD SVG 1.1//EN" "http://www.w3.org/Graphics/SVG/1.1/DTD/svg11.dtd" >
<svg xmlns="http://www.w3.org/2000/svg">
<metadata>
This is a custom SVG webfont generated by Font Squirrel.
Designer    : FontSitecom
Foundry URL : httpwwwfontsitecom
</metadata>
<defs>
<font id="webfontJjNoeV8o" horiz-adv-x="1228" >
<font-face units-per-em="2048" ascent="1542" descent="-506" />
<missing-glyph horiz-adv-x="512" />
<glyph unicode=" "  horiz-adv-x="512" />
<glyph unicode="&#x09;" horiz-adv-x="512" />
<glyph unicode="&#xa0;" horiz-adv-x="512" />
<glyph unicode="!" horiz-adv-x="696" d="M137 176q0 84 62.5 146.5t148.5 62.5q88 0 150.5 -61.5t62.5 -149.5t-61.5 -150.5t-149.5 -62.5q-90 0 -151.5 62.5t-61.5 152.5zM178 465v901h342v-901h-342z" />
<glyph unicode="&#x22;" horiz-adv-x="839" d="M84 1366h291l-49 -549h-193zM465 1366h291l-49 -549h-193z" />
<glyph unicode="#" d="M31 375v235h217l22 172h-186v236h215l47 348h266l-47 -348h176l45 348h271l-45 -348h184v-236h-215l-23 -172h189v-235h-217l-49 -375h-271l49 375h-174l-51 -375h-266l49 375h-186zM514 610h176l23 172h-176z" />
<glyph unicode="$" d="M117 160l147 272q170 -152 330 -151q72 0 120 37.5t48 93.5q0 45 -37 75q-25 20 -44 28.5t-93 31.5q-29 8 -47 14q-184 57 -265 144.5t-81 230.5q0 106 47 202.5t129 155.5q78 53 192 68v219h168v-219q193 -16 330 -105l-135 -262q-117 88 -230 88q-66 0 -109.5 -29.5 t-43.5 -72.5q0 -41 39 -74q29 -25 53 -35t139 -49q178 -59 258 -149t80 -234q0 -115 -47 -209t-131 -145q-74 -45 -203 -82v-227h-168v217q-104 -2 -244.5 50.5t-201.5 115.5z" />
<glyph unicode="%" horiz-adv-x="1832" d="M68 1051q0 150 105.5 239.5t277.5 89.5q162 0 263 -93t101 -238q0 -160 -121 -261q-94 -78 -258 -77q-168 0 -268 93t-100 247zM287 1049q0 -66 45 -111t110 -45q63 0 108.5 45t45.5 108.5t-46 108.5t-109.5 45t-108.5 -45t-45 -106zM430 0l793 1366h178l-793 -1366h-178 zM1018 326q0 147 105.5 237t277.5 90q162 0 263 -93t101 -238q0 -160 -120 -261q-94 -78 -259 -77q-168 0 -268 93t-100 249zM1237 322q0 -63 45 -109.5t111 -46.5q63 0 108 45t45 108.5t-46 108.5t-109.5 45t-108.5 -45t-45 -106z" />
<glyph unicode="&#x26;" horiz-adv-x="1548" d="M82 354q0 180 133 291q49 41 193 107q-78 96 -102.5 150t-24.5 128q0 162 121.5 268.5t304 106.5t304.5 -106.5t122 -266.5q0 -150 -117 -244q-43 -37 -137 -86l172 -180q111 100 178 195l201 -195q-66 -84 -187 -198l305 -324h-442l-119 125q-252 -164 -469 -164 q-193 0 -314.5 110.5t-121.5 282.5zM449 410q0 -57 45 -94t112 -37q92 0 187 61l-215 231q-129 -81 -129 -161zM616 1049q0 -66 109 -181q127 76 127 170q0 53 -35 89t-86 36q-49 0 -82 -32.5t-33 -81.5z" />
<glyph unicode="'" horiz-adv-x="458" d="M84 1366h291l-49 -549h-193z" />
<glyph unicode="(" horiz-adv-x="692" d="M137 610q0 266 69.5 517t192.5 432l199 -113q-209 -358 -209 -848q0 -242 57.5 -476.5t151.5 -379.5l-199 -113q-113 164 -168 342q-94 315 -94 639z" />
<glyph unicode=")" horiz-adv-x="692" d="M96 -258q209 356 209 848q0 240 -57.5 475t-151.5 381l199 113q113 -164 168 -342q94 -315 94 -639q0 -266 -69.5 -517t-192.5 -432z" />
<glyph unicode="*" d="M289 1206l49 154l225 -107l-31 248h162l-32 -248l227 107l49 -154l-244 -45l170 -182l-131 -96l-119 219l-120 -219l-132 96l173 180z" />
<glyph unicode="+" d="M129 567v232h369v368h231v-368h369v-232h-369v-368h-231v368h-369z" />
<glyph unicode="," horiz-adv-x="620" d="M-18 -254l235 600h307l-331 -600h-211z" />
<glyph unicode="-" horiz-adv-x="518" d="M0 348v273h518v-273h-518z" />
<glyph unicode="." horiz-adv-x="620" d="M98 176q0 84 62.5 146.5t148.5 62.5q88 0 150.5 -61.5t62.5 -149.5t-61.5 -150.5t-149.5 -62.5q-90 0 -151.5 62.5t-61.5 152.5z" />
<glyph unicode="/" horiz-adv-x="1013" d="M-2 -313l745 1814h261l-748 -1814h-258z" />
<glyph unicode="0" d="M35 694q0 319 155 512q170 211 424 211t422 -211q156 -195 156 -524q0 -326 -156 -522q-166 -211 -422 -211q-260 0 -424 211q-155 200 -155 534zM387 684q0 -188 63.5 -306t164 -118t163 117t62.5 303q0 184 -63.5 302t-162.5 118q-100 0 -163.5 -117t-63.5 -299z" />
<glyph unicode="1" d="M285 1065v301h549v-1366h-355v1065h-194z" />
<glyph unicode="2" d="M53 0l346 362q170 176 283 349q84 121 84 235q0 72 -46 124t-112 52q-63 0 -104 -47t-41 -121l4 -57h-389q0 139 69 272q63 123 182.5 188.5t276.5 65.5q231 0 380 -138t149 -353q0 -227 -203 -418l-230 -213h447v-301h-1096z" />
<glyph unicode="3" d="M53 436h363q6 -90 57 -140t137 -50q80 0 132.5 50t52.5 128q0 76 -54.5 130t-132.5 54q-27 0 -61 -10v242l41 -2q68 -2 109.5 41t41.5 112q0 57 -40 96t-99 39q-66 0 -104.5 -41t-40.5 -114h-330q16 133 70 223q61 106 174.5 164.5t259.5 58.5q199 0 319.5 -107.5 t120.5 -285.5q0 -190 -145 -285q84 -29 127 -82q96 -113 96 -268q0 -199 -149.5 -324.5t-385.5 -125.5q-330 0 -487 266q-70 116 -72 231z" />
<glyph unicode="4" d="M23 281v229l526 856h463v-813h166v-272h-166v-281h-328v281h-661zM362 553h322v526z" />
<glyph unicode="5" d="M94 80l53 332q188 -160 373 -160q96 0 162 58.5t66 146.5q0 102 -85 166.5t-219 64.5q-131 0 -260 -57l119 735h711v-301h-471l-25 -152q61 10 109 11q211 0 349 -136.5t138 -343.5q0 -242 -186 -383q-141 -106 -387 -106q-248 0 -447 125z" />
<glyph unicode="6" d="M35 446q0 242 207 519l303 401h403l-387 -465q104 43 191 43q188 0 314 -137t126 -342q0 -231 -162 -375.5t-424 -144.5q-281 0 -430 155q-141 147 -141 346zM381 451q0 -92 65.5 -159t159.5 -67q90 0 156.5 66.5t66.5 157.5q0 94 -65.5 160.5t-157.5 66.5 q-94 0 -159.5 -65.5t-65.5 -159.5z" />
<glyph unicode="7" d="M90 0l623 1065h-570v301h1121l-783 -1366h-391z" />
<glyph unicode="8" d="M92 369q0 164 121 268q49 43 149 82q-215 90 -215 303q0 162 132 276q117 104 335 105q209 0 337 -105.5t128 -277.5q0 -141 -96 -225q-43 -35 -127 -76q106 -39 162 -90q117 -104 117 -260q0 -174 -148.5 -289t-372.5 -115q-248 0 -405 141q-117 105 -117 263zM451 414 q0 -70 48 -118t115 -48q66 0 114 48t48 115.5t-48 115.5t-116 48q-66 0 -113.5 -47.5t-47.5 -113.5zM463 1016q0 -63 44 -107.5t107 -44.5q61 0 105.5 44t44.5 108q0 61 -44 105t-108 44q-59 0 -104 -44t-45 -105z" />
<glyph unicode="9" d="M35 901q0 231 161.5 375.5t424.5 144.5q281 0 430 -155q141 -147 141 -346q0 -117 -55.5 -257.5t-149.5 -263.5l-305 -399h-403l389 465q-106 -43 -191 -43q-188 0 -315 137t-127 342zM397 920q0 -96 65.5 -163t160 -67t160 66.5t65.5 161t-65.5 160t-159.5 65.5 q-92 0 -159 -66.5t-67 -156.5z" />
<glyph unicode=":" horiz-adv-x="620" d="M98 176q0 84 62.5 146.5t148.5 62.5q88 0 150.5 -61.5t62.5 -149.5t-61.5 -150.5t-149.5 -62.5q-90 0 -151.5 62.5t-61.5 152.5zM98 788q0 84 62.5 146.5t148.5 62.5q88 0 150.5 -61.5t62.5 -149.5t-61.5 -150.5t-149.5 -62.5q-90 0 -151.5 62.5t-61.5 152.5z" />
<glyph unicode=";" horiz-adv-x="620" d="M-18 -254l235 600h307l-331 -600h-211zM147 788q0 84 62.5 146.5t148.5 62.5q88 0 150.5 -61.5t62.5 -149.5t-61 -150.5t-150 -62.5q-90 0 -151.5 62.5t-61.5 152.5z" />
<glyph unicode="&#x3c;" horiz-adv-x="1024" d="M68 532v324l886 492v-387l-477 -269l475 -270l2 -383z" />
<glyph unicode="=" d="M129 387v231h969v-231h-969zM129 750v231h969v-231h-969z" />
<glyph unicode="&#x3e;" horiz-adv-x="1024" d="M68 39v387l477 268l-475 271l-2 383l886 -494v-324z" />
<glyph unicode="?" horiz-adv-x="1120" d="M68 979q4 188 141 307t350 119q199 0 339 -126t140 -304q0 -86 -38.5 -165t-106.5 -130t-182 -92v-129h-334v352q43 -10 74 -10q100 0 168.5 52t68.5 130q0 57 -39 96t-96 39t-89 -37t-36 -102h-360zM340 176q0 84 62.5 146.5t148.5 62.5q88 0 150.5 -61.5t62.5 -149.5 t-61.5 -150.5t-149.5 -62.5q-90 0 -151.5 62.5t-61.5 152.5z" />
<glyph unicode="@" horiz-adv-x="1409" d="M-18 680q0 307 217 517t534 210q293 0 493.5 -182.5t200.5 -448.5q0 -201 -116.5 -347t-278.5 -146q-100 0 -155 88q-92 -90 -215 -90q-143 0 -236.5 106.5t-93.5 267.5q0 168 104.5 278.5t261.5 110.5q92 0 189 -59l12 43h188l-55 -450q-4 -27 -4 -89q0 -35 23 -34 q76 0 138 99t62 218q0 201 -147.5 335t-368.5 134q-238 0 -398.5 -161.5t-160.5 -399.5q0 -152 71.5 -280t196.5 -201q129 -74 306 -74q115 0 203.5 23.5t213.5 87.5l13 6l65 -166q-137 -70 -246.5 -97.5t-246.5 -27.5q-240 0 -412 98q-166 96 -262 264t-96 367zM539 649 q0 -78 36.5 -127t96.5 -49q78 0 136 66.5t58 154.5q0 68 -45 113t-114 45q-74 0 -121 -57.5t-47 -145.5z" />
<glyph unicode="A" horiz-adv-x="1454" d="M14 0l525 1366h387l514 -1366h-379l-88 238h-490l-94 -238h-375zM582 508h295l-146 436z" />
<glyph unicode="B" horiz-adv-x="1265" d="M143 0v1366h527q188 0 286.5 -91t98.5 -265q0 -102 -35 -169t-115 -114q131 -25 191 -84q88 -88 88 -256q0 -180 -126 -283.5t-345 -103.5h-570zM498 276h77q131 0 190.5 34t59.5 110q0 84 -67 119q-49 25 -189 24h-71v-287zM498 827h65q166 0 166 134q0 135 -166 135 h-65v-269z" />
<glyph unicode="C" horiz-adv-x="1208" d="M82 672q0 303 210 513t513 210q145 0 321 -70v-424q-125 150 -307 150q-160 0 -263 -106.5t-103 -270.5q0 -176 120 -277q109 -90 246 -90q172 0 307 144v-420q-203 -68 -317 -68q-150 0 -296 63.5t-251 174.5q-180 192 -180 471z" />
<glyph unicode="D" horiz-adv-x="1423" d="M143 0v1366h525q270 0 470.5 -204t200.5 -480q0 -274 -200.5 -478t-470.5 -204h-525zM498 301h82q188 0 290 115q98 109 99 266q0 160 -99 268q-102 115 -290 115h-82v-764z" />
<glyph unicode="E" horiz-adv-x="1001" d="M143 0v1366h777v-301h-422v-227h399v-301h-399v-236h422v-301h-777z" />
<glyph unicode="F" horiz-adv-x="993" d="M143 0v1366h783v-301h-428v-227h389v-301h-389v-537h-355z" />
<glyph unicode="G" horiz-adv-x="1593" d="M82 676q0 328 206 530.5t535 202.5q217 0 367.5 -94t247.5 -291l-338 -139q-90 217 -293 217q-152 0 -253 -122t-101 -306q0 -203 122 -332q88 -98 242 -98t232 100q37 49 49 137h-291v277h704q-6 -274 -71 -420q-84 -186 -247 -286.5t-382 -100.5q-324 0 -526.5 201.5 t-202.5 523.5z" />
<glyph unicode="H" horiz-adv-x="1509" d="M143 0v1366h355v-528h514v528h354v-1366h-354v561h-514v-561h-355z" />
<glyph unicode="I" horiz-adv-x="641" d="M143 0v1366h355v-1366h-355z" />
<glyph unicode="J" horiz-adv-x="958" d="M16 166l232 235q8 -59 39.5 -96t77.5 -37q101 0 100 146v12l-2 78v862h354v-944q0 -115 -22.5 -182.5t-81.5 -133.5q-133 -143 -340 -143q-224 0 -357 203z" />
<glyph unicode="K" horiz-adv-x="1433" d="M143 0v1366h355v-563l432 563h438l-541 -647l592 -719h-461l-460 592v-592h-355z" />
<glyph unicode="L" horiz-adv-x="962" d="M143 0v1366h355v-1065h426v-301h-781z" />
<glyph unicode="M" horiz-adv-x="1873" d="M82 0l231 1366h351l276 -729l293 729h354l205 -1366h-354l-101 786l-329 -786h-142l-315 786l-117 -786h-352z" />
<glyph unicode="N" horiz-adv-x="1648" d="M143 0v1366h355l653 -836v836h354v-1366h-354l-653 836v-836h-355z" />
<glyph unicode="O" horiz-adv-x="1675" d="M82 692q0 154 67.5 297.5t188.5 245.5q205 172 500 172q342 0 559 -229q197 -207 196 -500q0 -162 -67.5 -307.5t-188.5 -247.5q-207 -172 -506 -172q-324 0 -536.5 211t-212.5 530zM453 684q0 -164 111.5 -276.5t273.5 -112.5q160 0 272.5 112.5t112.5 272.5 q0 158 -113 270.5t-272 112.5q-158 0 -271.5 -111.5t-113.5 -267.5z" />
<glyph unicode="P" horiz-adv-x="1226" d="M143 0v1366h564q121 0 198.5 -25.5t143.5 -89.5q133 -127 133 -338q0 -209 -111 -331q-113 -127 -352 -127h-221v-455h-355zM498 739h116q100 0 148.5 41t48.5 129q0 172 -195 172h-118v-342z" />
<glyph unicode="Q" horiz-adv-x="1675" d="M82 680q0 150 61.5 291t171.5 243q207 190 521 191q330 0 543.5 -205t213.5 -520q0 -137 -41 -249t-137 -234l232 -236l-326 -49l-111 129q-154 -88 -354 -88q-393 0 -602 256q-172 213 -172 471zM453 672q0 -160 109.5 -267.5t273.5 -107.5q51 0 110 16l-217 219l334 41 l94 -100q66 96 66 205q0 156 -114 269.5t-271 113.5q-162 0 -273.5 -112.5t-111.5 -276.5z" />
<glyph unicode="R" horiz-adv-x="1284" d="M143 0v1366h551q221 0 336 -121q117 -123 117 -301q0 -195 -125 -303q-66 -57 -174 -82l430 -559h-442l-338 524v-524h-355zM498 754h65q104 0 152 37q68 49 67.5 133t-67.5 133q-47 37 -152 37h-65v-340z" />
<glyph unicode="S" horiz-adv-x="1169" d="M82 119l151 287q160 -139 314 -140q78 0 125 37t47 96q0 55 -44 88t-169 70q-199 59 -260 111q-109 90 -109 270q0 205 129 333t336 128q221 0 432 -111l-141 -276q-117 92 -234 92q-66 0 -108.5 -34t-42.5 -85q0 -41 33 -67q31 -25 63.5 -38.5t149.5 -48.5 q178 -53 257 -142t79 -240q0 -233 -140 -355q-152 -129 -395 -129q-250 0 -473 154z" />
<glyph unicode="T" horiz-adv-x="964" d="M14 1065v301h938v-301h-295v-1065h-354v1065h-289z" />
<glyph unicode="U" horiz-adv-x="1476" d="M143 578v788h355v-739q0 -119 6 -160t33 -84q61 -104 198 -104q68 0 123 29.5t84 80.5q23 39 30 84t7 154v739h354v-788q0 -150 -29.5 -243t-103.5 -177q-170 -193 -471 -193q-156 0 -286 54.5t-201 150.5q-99 132 -99 408z" />
<glyph unicode="V" horiz-adv-x="1431" d="M0 1366h387l328 -831l332 831h385l-582 -1366h-277z" />
<glyph unicode="W" horiz-adv-x="2076" d="M0 1366h371l237 -883l289 883h283l268 -883l258 883h371l-437 -1366h-362l-248 791l-262 -791h-360z" />
<glyph unicode="X" horiz-adv-x="1456" d="M0 0l535 729l-439 637h439l202 -354l211 354h436l-444 -637l516 -729h-430l-291 444l-307 -444h-428z" />
<glyph unicode="Y" horiz-adv-x="1310" d="M-25 1366h424l258 -373l248 373h430l-512 -711v-655h-354v655z" />
<glyph unicode="Z" horiz-adv-x="1292" d="M27 0l645 1065h-537v301h1131l-643 -1065h573v-301h-1169z" />
<glyph unicode="[" horiz-adv-x="690" d="M164 -313v1814h444v-190h-184v-1432h184v-192h-444z" />
<glyph unicode="\" horiz-adv-x="1013" d="M12 1501h260l746 -1814h-260z" />
<glyph unicode="]" horiz-adv-x="690" d="M82 -123h184v1432h-184v192h444v-1814h-444v190z" />
<glyph unicode="^" horiz-adv-x="1024" d="M12 690l285 686h428l287 -686h-338l-162 424l-162 -424h-338z" />
<glyph unicode="_" horiz-adv-x="1024" d="M0 -100h1024v-226h-1024v226z" />
<glyph unicode="`" horiz-adv-x="1024" d="M197 1343l209 150l258 -315l-152 -113z" />
<glyph unicode="a" horiz-adv-x="1269" d="M76 467q0 207 134 349t333 142q174 0 288 -120v90h328v-928h-328v102q-104 -133 -286 -133q-199 0 -334 143.5t-135 354.5zM418 467q0 -90 62.5 -152.5t150.5 -62.5t149.5 62.5t61.5 150.5t-62.5 149.5t-150.5 61.5q-86 0 -148.5 -62.5t-62.5 -146.5z" />
<glyph unicode="b" horiz-adv-x="1269" d="M113 0v1501h327v-663q115 121 289 120q199 0 333 -142t134 -349q0 -211 -135 -354.5t-334 -143.5q-180 0 -287 133v-102h-327zM430 465q0 -88 62.5 -150.5t150.5 -62.5q86 0 148.5 62.5t62.5 146.5q0 90 -61.5 152.5t-149.5 62.5t-150.5 -61.5t-62.5 -149.5z" />
<glyph unicode="c" horiz-adv-x="886" d="M76 457q0 215 147.5 357t368.5 142q119 0 221 -51v-278q-86 57 -170 57q-98 0 -161.5 -63.5t-63.5 -161.5q0 -94 64.5 -157.5t160.5 -63.5q90 0 170 61v-279q-117 -51 -229 -51q-213 0 -360.5 141.5t-147.5 346.5z" />
<glyph unicode="d" horiz-adv-x="1269" d="M76 467q0 207 134 349t333 142q174 0 288 -120v663h328v-1501h-328v102q-104 -133 -286 -133q-199 0 -334 143.5t-135 354.5zM418 467q0 -90 62.5 -152.5t150.5 -62.5t149.5 62.5t61.5 150.5t-62.5 149.5t-150.5 61.5q-86 0 -148.5 -62.5t-62.5 -146.5z" />
<glyph unicode="e" horiz-adv-x="1171" d="M76 457q0 229 139 363t376.5 134t372 -138t134.5 -380v-33h-690q2 -209 198 -208q59 0 95 19t67 69h315q-31 -104 -82 -164q-133 -156 -395 -156q-242 0 -386 134.5t-144 359.5zM416 594h377q-16 70 -67.5 109.5t-125.5 39.5t-123 -39.5t-61 -109.5z" />
<glyph unicode="f" horiz-adv-x="708" d="M23 655v273h116v141q0 113 22.5 182.5t82.5 132.5q127 137 309 138q70 0 145 -35v-285q-74 33 -114 33q-33 0 -64 -18.5t-41 -42.5q-12 -27 -12 -130v-116h231v-273h-231v-655h-328v655h-116z" />
<glyph unicode="g" horiz-adv-x="1263" d="M76 451q0 217 135 360t336 143q168 0 276 -123v97h328v-865q0 -147 -26.5 -229t-98.5 -153q-150 -150 -414 -150q-274 0 -426 164q-80 84 -100 192h369q33 -94 155 -94q111 0 174 80q39 55 39 143v86q-74 -68 -138 -94t-155 -26q-199 0 -326.5 131t-127.5 338zM418 469 q0 -88 61.5 -150.5t149.5 -62.5t149.5 61.5t61.5 149.5t-61.5 149.5t-149.5 61.5q-86 0 -148.5 -61.5t-62.5 -147.5z" />
<glyph unicode="h" horiz-adv-x="1202" d="M113 0v1501h327v-690q66 76 132.5 106.5t164.5 30.5q168 0 269 -102q49 -49 67.5 -104.5t18.5 -151.5v-590h-328v469q0 109 -21 147q-35 72 -131 72q-88 0 -137 -61q-35 -41 -35 -129v-498h-327z" />
<glyph unicode="i" horiz-adv-x="550" d="M92 1286q0 74 54.5 128t130 54t130 -54t54.5 -130t-54.5 -130t-130 -54t-130 54t-54.5 132zM113 0v928h327v-928h-327z" />
<glyph unicode="j" horiz-adv-x="550" d="M92 1286q0 74 54.5 128t130 54t130 -54t54.5 -130t-54.5 -130t-130 -54t-130 54t-54.5 132zM113 -465v1393h327v-1393h-327z" />
<glyph unicode="k" horiz-adv-x="1263" d="M113 0v1501h327v-907l344 334h449l-465 -428l494 -500h-461l-361 377v-377h-327z" />
<glyph unicode="l" horiz-adv-x="550" d="M113 0v1501h327v-1501h-327z" />
<glyph unicode="m" horiz-adv-x="1796" d="M113 0v928h327v-115q131 129 301 129q207 0 314 -172q113 174 315 174q82 0 152.5 -33.5t109.5 -91.5q51 -78 51 -217v-602h-327v459q0 106 -19 147q-33 82 -118 82q-41 0 -79 -23.5t-57 -62.5q-23 -47 -22 -143v-459h-328v459q0 109 -14 147.5t-50 63t-77 24.5 q-39 0 -76 -22.5t-53 -55.5q-23 -45 -23 -157v-459h-327z" />
<glyph unicode="n" horiz-adv-x="1202" d="M113 0v928h327v-117q66 76 132.5 106.5t164.5 30.5q168 0 269 -102q49 -49 67.5 -104.5t18.5 -151.5v-590h-328v469q0 109 -21 147q-35 72 -131 72q-88 0 -137 -61q-35 -41 -35 -129v-498h-327z" />
<glyph unicode="o" horiz-adv-x="1267" d="M76 473q0 211 158.5 350.5t398.5 139.5q246 0 402.5 -139.5t156.5 -358.5q0 -221 -156.5 -360.5t-406.5 -139.5q-244 0 -398.5 141.5t-154.5 366.5zM422 469q0 -90 62.5 -152.5t150.5 -62.5t149.5 62.5t61.5 150.5q0 90 -62.5 151.5t-150.5 61.5q-86 0 -148.5 -62.5 t-62.5 -148.5z" />
<glyph unicode="p" horiz-adv-x="1269" d="M113 -465v1393h327v-103q104 133 287 133q199 0 334 -143t135 -354q0 -207 -134 -349.5t-333 -142.5q-174 0 -289 121v-555h-327zM430 465q0 -88 62.5 -150.5t150.5 -62.5q86 0 148.5 62.5t62.5 146.5q0 90 -61.5 152.5t-151.5 62.5q-86 0 -148.5 -62.5t-62.5 -148.5z " />
<glyph unicode="q" horiz-adv-x="1269" d="M76 461q0 211 135 354t334 143q180 0 286 -133v103h328v-1393h-328v555q-115 -121 -288 -121q-199 0 -333 142.5t-134 349.5zM418 467q0 -90 62.5 -152.5t150.5 -62.5q86 0 148.5 62.5t62.5 150.5t-62.5 149.5t-150.5 61.5q-86 0 -148.5 -62.5t-62.5 -146.5z" />
<glyph unicode="r" horiz-adv-x="841" d="M113 0v928h327v-152q57 88 129 127t176 39q2 0 64 -4v-313q-70 35 -139 34q-229 0 -230 -262v-397h-327z" />
<glyph unicode="s" horiz-adv-x="921" d="M55 72l119 231q141 -94 262 -94q45 0 74 20.5t29 51.5q0 33 -28 50t-112 36q-147 31 -209.5 90t-62.5 168q0 156 110.5 246t303.5 90q158 0 299 -60l-111 -213q-90 45 -178 45q-43 0 -71.5 -18.5t-28.5 -46.5q0 -31 27.5 -45.5t119.5 -34.5q270 -55 270 -275 q0 -158 -120.5 -253t-321.5 -95q-191 1 -371 107z" />
<glyph unicode="t" horiz-adv-x="675" d="M43 655v273h109v278h327v-278h187v-273h-187v-655h-327v655h-109z" />
<glyph unicode="u" horiz-adv-x="1212" d="M113 338v590h327v-527q0 -170 168 -170q166 0 166 170v527h328v-590q0 -184 -127 -280.5t-368.5 -96.5t-367.5 96.5t-126 280.5z" />
<glyph unicode="v" horiz-adv-x="1181" d="M0 928h369l221 -475l225 475h367l-484 -928h-219z" />
<glyph unicode="w" horiz-adv-x="1857" d="M0 928h367l221 -490l233 490h205l234 -504l233 504h365l-486 -928h-221l-231 508l-222 -508h-221z" />
<glyph unicode="x" horiz-adv-x="1343" d="M0 0l463 504l-377 424h428l160 -191l164 191h426l-385 -424l464 -504h-434l-237 276l-238 -276h-434z" />
<glyph unicode="y" horiz-adv-x="1245" d="M0 928h381l248 -475l241 475h375l-745 -1393h-367l316 590z" />
<glyph unicode="z" horiz-adv-x="1067" d="M41 0l438 655h-379v273h924l-434 -656h391v-272h-940z" />
<glyph unicode="{" horiz-adv-x="784" d="M164 494v221q113 23 112 155v344q0 160 62.5 227.5t212.5 67.5q8 0 84 -4q37 0 67 -2v-231q-16 2 -36 2q-86 0 -106.5 -23.5t-20.5 -120.5v-278q0 -104 -25 -155.5t-98 -102.5q70 -45 96.5 -100.5t26.5 -157.5v-279q0 -96 20.5 -119.5t104.5 -23.5h38v-231h-67l-88 -5 q-145 0 -208 69t-63 226v342q0 84 -25.5 125.5t-86.5 53.5z" />
<glyph unicode="|" horiz-adv-x="1024" d="M317 -342v1708h392v-1708h-392z" />
<glyph unicode="}" horiz-adv-x="784" d="M82 -84q16 -2 37 -2q84 0 104.5 23.5t20.5 119.5v279q0 104 24.5 155.5t98.5 102.5q-70 45 -96.5 100.5t-26.5 157.5v278q0 96 -20.5 120t-104.5 24h-37v231h68l86 4q145 0 207.5 -68.5t62.5 -226.5v-342q0 -84 25.5 -124.5t89.5 -53.5v-221q-115 -23 -115 -156v-344 q0 -160 -62.5 -227.5t-212.5 -67.5q-8 0 -81 5q-37 0 -68 2v231z" />
<glyph unicode="~" horiz-adv-x="1366" d="M184 1243q12 29 17 35l24 57q82 193 269 193q68 0 213 -55q131 -49 178 -50q49 0 79.5 22.5t67.5 84.5l150 -86q-47 -96 -78 -140t-74 -75q-82 -57 -174 -58q-53 0 -209 58q-127 47 -168 47q-53 0 -92 -35q-20 -18 -57 -92z" />
<glyph unicode="&#xa1;" horiz-adv-x="696" d="M137 885q0 84 62.5 146.5t148.5 62.5q88 0 150.5 -61.5t62.5 -149.5t-61.5 -150.5t-149.5 -62.5q-90 0 -151.5 62.5t-61.5 152.5zM178 -313v901h342v-901h-342z" />
<glyph unicode="&#xa2;" d="M252 686q0 137 65.5 251t182.5 177q84 47 209 64v168h165v-181q45 -10 107 -30v-295q-80 70 -164 69q-94 0 -157.5 -64.5t-63.5 -160.5q0 -94 63.5 -157.5t155.5 -63.5q94 0 166 69v-294q-68 -23 -107 -29v-191h-165v179q-195 12 -326 152t-131 337z" />
<glyph unicode="&#xa3;" d="M41 0q27 141 112 230t197 92q18 39 19 67q0 66 -37 135h-271v174h150q-53 90 -53 215q0 182 121 320q143 158 419 158q254 0 372 -124t118 -390h-359q10 41 11 63q0 72 -50.5 122t-119.5 50q-74 0 -122 -54t-48 -140q0 -80 47 -191l12 -29h307v-174h-256q8 -57 8 -112 q0 -53 -16 -111q225 -68 289 -68q86 0 90 89h221q-6 -88 -37 -160q-86 -190 -303 -191q-66 0 -244 52q-160 45 -227 45q-92 0 -117 -68h-233z" />
<glyph unicode="&#xa4;" horiz-adv-x="1366" d="M39 1268l145 145l213 -213q137 90 287 90q145 0 281 -88l211 209l143 -143l-209 -209q92 -150 92 -287q0 -141 -88 -278l211 -211l-143 -146l-211 211q-133 -92 -291 -92q-139 0 -285 90l-211 -209l-143 144l211 211q-90 129 -90 282q0 147 90 281zM403 772 q0 -115 82 -196.5t197 -81.5t197 81.5t82 198.5q0 115 -81 197t-194 82q-119 0 -201 -81t-82 -200z" />
<glyph unicode="&#xa5;" d="M8 1366h404l206 -393l197 393h408l-301 -477h198v-215h-332l-12 -19v-106h344v-215h-344v-334h-338v334h-327v215h327v106l-12 19h-315v215h186z" />
<glyph unicode="&#xa6;" horiz-adv-x="1024" d="M317 313h392v-655h-392v655zM317 625v741h392v-741h-392z" />
<glyph unicode="&#xa7;" d="M176 598q0 125 64 217q37 55 135 107q-82 57 -115 117.5t-33 144.5q0 147 106.5 239.5t276.5 92.5q123 0 221.5 -45.5t143.5 -122.5q45 -82 51 -215h-285l-2 14q-18 137 -121 137q-47 0 -80.5 -31.5t-33.5 -77t39 -76t166 -83.5q117 -47 168 -77t94 -73q96 -96 96 -237 q0 -106 -47 -182t-162 -156q84 -55 120 -114.5t36 -145.5q0 -154 -115 -256.5t-289 -102.5q-143 0 -246.5 70t-140.5 188q-16 51 -20 144h291q2 -61 10 -84q31 -80 117 -80q53 0 88.5 36t35.5 87q0 66 -53 102q-39 29 -153 68q-113 37 -166.5 64.5t-96.5 70.5 q-100 100 -100 260zM471 604q0 -61 44 -105t103 -44q61 0 105.5 44t44.5 105.5t-44 105.5t-103 44q-63 0 -106.5 -43.5t-43.5 -106.5z" />
<glyph unicode="&#xa8;" horiz-adv-x="1024" d="M102 1251q0 72 53.5 124t125.5 52q74 0 126 -52t52 -125.5t-52.5 -126t-126 -52.5t-126 52t-52.5 128zM567 1251q0 72 53.5 124t124.5 52q74 0 126.5 -52t52.5 -125.5t-52.5 -126t-126 -52.5t-126 52t-52.5 128z" />
<glyph unicode="&#xa9;" horiz-adv-x="1556" d="M68 682q0 299 208.5 507t511.5 208q287 0 493 -211t206 -504q0 -295 -208 -504t-501 -209t-501.5 210t-208.5 503zM209 682q0 -242 167 -414t402 -172q233 0 399 172t166 414q0 240 -164.5 413t-392.5 173q-242 0 -409.5 -170t-167.5 -416zM365 678q0 180 131 306 t319 126q92 0 211 -45v-293q-37 43 -43 49q-66 61 -158 62q-88 0 -145 -56.5t-57 -146.5q0 -88 57 -144.5t145 -56.5q82 0 152 56q10 8 49 45v-285q-137 -43 -211 -43q-188 0 -319 124t-131 302z" />
<glyph unicode="&#xaa;" horiz-adv-x="743" d="M41 1077q0 121 79 205t193 84q100 0 170 -72v54h193v-543h-193v59q-63 -78 -168 -78q-115 0 -194.5 84t-79.5 207zM63 580v122h621v-122h-621zM240 1077q0 -53 35.5 -89t89.5 -36q51 0 86.5 37t35.5 88t-36.5 87t-88.5 36q-49 0 -85.5 -36t-36.5 -87z" />
<glyph unicode="&#xab;" horiz-adv-x="1087" d="M57 467l312 444l180 -125l-227 -319l233 -315l-186 -132zM508 467l311 444l180 -125l-227 -319l234 -315l-187 -132z" />
<glyph unicode="&#xac;" horiz-adv-x="1024" d="M68 270v340h886v-610h-379v270h-507z" />
<glyph unicode="&#xad;" horiz-adv-x="518" d="M0 348v273h518v-273h-518z" />
<glyph unicode="&#xae;" horiz-adv-x="1556" d="M68 682q0 299 208.5 507t511.5 208q287 0 493 -211t206 -504q0 -295 -208 -504t-501 -209t-501.5 210t-208.5 503zM209 682q0 -242 167 -414t402 -172q233 0 399 172t166 414q0 240 -164.5 413t-392.5 173q-242 0 -409.5 -170t-167.5 -416zM418 272v820h356 q141 0 217 -74q76 -76 76 -184q0 -178 -172 -232l270 -330h-311l-188 275v-275h-248zM666 737h26q121 0 121 84q0 86 -121 86h-26v-170z" />
<glyph unicode="&#xaf;" horiz-adv-x="1024" d="M154 1106v201h716v-201h-716z" />
<glyph unicode="&#xb0;" d="M342 1116q0 111 81 190.5t191 79.5q113 0 194 -79.5t81 -192.5t-80 -193.5t-193 -80.5q-115 0 -194.5 80.5t-79.5 195.5zM483 1116q0 -55 39 -94t92.5 -39t92 39t38.5 92t-38.5 92t-92 39t-92.5 -38t-39 -91z" />
<glyph unicode="&#xb1;" d="M129 0v231h969v-231h-969zM129 655v232h369v368h231v-368h369v-232h-369v-327h-231v327h-369z" />
<glyph unicode="&#xb2;" horiz-adv-x="819" d="M63 547l218 225q215 221 215 338q0 41 -26 69.5t-62 28.5q-35 0 -57.5 -25.5t-22.5 -66.5l4 -41h-244l-2 4v6q0 82 43 162q84 154 277 154q139 0 229 -84t90 -215q0 -135 -123 -250l-123 -115h254v-190h-670z" />
<glyph unicode="&#xb3;" horiz-adv-x="819" d="M72 817h227q6 -113 109 -112q45 0 73.5 27.5t28.5 70.5t-30.5 72.5t-73.5 29.5q-16 0 -44 -8v160q10 -2 31 -2q37 0 59.5 22.5t22.5 61.5q0 31 -21.5 51t-54.5 20q-78 0 -77 -92h-209q16 135 95 207t210 72q119 0 192.5 -65.5t73.5 -174.5q0 -113 -78 -166 q55 -20 89 -78.5t34 -130.5q0 -119 -90 -195.5t-231 -76.5q-199 0 -293 162q-43 71 -43 145z" />
<glyph unicode="&#xb4;" horiz-adv-x="1024" d="M360 1178l258 315l209 -150l-315 -278z" />
<glyph unicode="&#xb5;" horiz-adv-x="1212" d="M113 -465v1393h327v-531q0 -166 168 -166q166 0 166 170v527h328v-590q0 -178 -124 -277.5t-347 -99.5q-115 0 -217 35l26 -461h-327z" />
<glyph unicode="&#xb6;" d="M-10 1006q0 102 44 182t124 123q106 55 303 55h684v-203h-150v-1351h-223v1351h-170v-1351h-223v845q-180 -2 -284.5 92.5t-104.5 256.5z" />
<glyph unicode="&#xb7;" horiz-adv-x="620" d="M98 487q0 84 62.5 146.5t148.5 62.5q88 0 150.5 -61.5t62.5 -149.5t-61.5 -150.5t-149.5 -62.5q-90 0 -151.5 62.5t-61.5 152.5z" />
<glyph unicode="&#xb8;" horiz-adv-x="1024" d="M381 -397l240 293l188 -121l-281 -264z" />
<glyph unicode="&#xb9;" horiz-adv-x="819" d="M209 1176v190h338v-819h-223v629h-115z" />
<glyph unicode="&#xba;" horiz-adv-x="739" d="M43 1081q0 123 93 205t233 82q143 0 235 -82t92 -211q0 -127 -92 -209t-237 -82q-143 0 -233.5 83t-90.5 214zM59 580v122h621v-122h-621zM246 1077q0 -51 35.5 -88t87.5 -37q53 0 89 36t36 89q0 51 -37 87t-88 36q-49 0 -86 -36t-37 -87z" />
<glyph unicode="&#xbb;" horiz-adv-x="1087" d="M82 152l233 315l-227 319l180 125l312 -444l-312 -447zM532 152l234 315l-227 319l180 125l311 -444l-311 -447z" />
<glyph unicode="&#xbc;" horiz-adv-x="1992" d="M209 1176v190h338v-819h-223v629h-115zM512 0l793 1366h176l-793 -1366h-176zM1227 166v143l313 510h285v-479h98v-174h-98v-166h-207v166h-391zM1448 340h170v278z" />
<glyph unicode="&#xbd;" horiz-adv-x="1992" d="M209 1176v190h338v-819h-223v629h-115zM512 0l793 1366h176l-793 -1366h-176zM1237 0l217 225q215 221 215 338q0 41 -25.5 70t-62.5 29q-35 0 -57.5 -26t-22.5 -67l4 -41h-243l-2 4v7q0 84 43 161q84 154 276 154q139 0 229 -84t90 -215q0 -135 -122 -250l-123 -115h254 v-190h-670z" />
<glyph unicode="&#xbe;" horiz-adv-x="1994" d="M72 817h227q6 -113 109 -112q45 0 73.5 27.5t28.5 70.5t-30.5 72.5t-73.5 29.5q-16 0 -44 -8v160q10 -2 31 -2q37 0 59.5 22.5t22.5 61.5q0 31 -21.5 51t-54.5 20q-78 0 -77 -92h-209q16 135 95 207t210 72q119 0 192.5 -65.5t73.5 -174.5q0 -113 -78 -166 q55 -20 89 -78.5t34 -130.5q0 -119 -90 -195.5t-231 -76.5q-199 0 -293 162q-43 71 -43 145zM512 0l791 1366h178l-793 -1366h-176zM1227 166v143l313 510h285v-479h98v-174h-98v-166h-207v166h-391zM1448 340h170v278z" />
<glyph unicode="&#xbf;" horiz-adv-x="1116" d="M82 80q0 86 39 164t106 129q70 53 181 92v129h331v-352q-43 10 -71 10q-100 0 -168 -52.5t-68 -127.5q0 -57 38 -95t95 -38q55 0 87 35.5t36 101.5h361q-4 -186 -141.5 -305t-348.5 -119q-199 0 -338 126t-139 302zM354 881q0 88 61.5 150.5t149.5 62.5q90 0 151.5 -62.5 t61.5 -152.5q0 -84 -62.5 -146.5t-148.5 -62.5q-88 0 -150.5 61.5t-62.5 149.5z" />
<glyph unicode="&#xc0;" horiz-adv-x="1454" d="M14 0l525 1366h387l514 -1366h-379l-88 238h-490l-94 -238h-375zM389 1712l191 172l294 -280l-137 -129zM582 508h295l-146 436z" />
<glyph unicode="&#xc1;" horiz-adv-x="1454" d="M14 0l525 1366h387l514 -1366h-379l-88 238h-490l-94 -238h-375zM582 508h295l-146 436zM614 1604l297 280l189 -172l-348 -237z" />
<glyph unicode="&#xc2;" horiz-adv-x="1454" d="M14 0l525 1366h387l514 -1366h-379l-88 238h-490l-94 -238h-375zM317 1630l418 246l416 -246l-98 -155l-318 159l-319 -159zM582 508h295l-146 436z" />
<glyph unicode="&#xc3;" horiz-adv-x="1454" d="M14 0l525 1366h387l514 -1366h-379l-88 238h-490l-94 -238h-375zM348 1509q0 94 29 158q27 61 81 97t120 36q59 0 188 -43q92 -29 127 -28q59 0 80 73h176q-14 -121 -37 -166q-61 -127 -215 -127q-72 0 -170 35q-102 39 -139 39q-29 0 -43.5 -14.5t-24.5 -59.5h-172z M582 508h295l-146 436z" />
<glyph unicode="&#xc4;" horiz-adv-x="1454" d="M14 0l525 1366h387l514 -1366h-379l-88 238h-490l-94 -238h-375zM311 1675q0 72 53.5 124t124.5 52q74 0 126.5 -52t52.5 -126t-52.5 -126t-126 -52t-126 52t-52.5 128zM582 508h295l-146 436zM803 1675q0 72 53 124t125 52q74 0 126 -52t52 -126t-52 -126t-126 -52 t-126 52t-52 128z" />
<glyph unicode="&#xc5;" horiz-adv-x="1454" d="M14 0l525 1366h387l514 -1366h-379l-88 238h-490l-94 -238h-375zM453 1681q0 96 74.5 153.5t199.5 57.5h14q127 0 201 -57t74 -155.5t-74 -156t-201 -57.5h-14q-127 0 -200.5 57.5t-73.5 157.5zM582 508h295l-146 436zM629 1681q0 -37 28.5 -58t75.5 -21q49 0 78 21.5 t29 55.5q0 37 -29 58.5t-78 21.5q-47 0 -75.5 -21.5t-28.5 -56.5z" />
<glyph unicode="&#xc6;" horiz-adv-x="1892" d="M14 0l527 1366h835l111 -301h-449l84 -227h447l114 -301h-450l88 -236h448l109 -301h-823l-88 240h-494l-84 -240h-375zM571 508h301l-147 407z" />
<glyph unicode="&#xc7;" horiz-adv-x="1208" d="M82 672q0 303 210 513t513 210q145 0 321 -70v-424q-125 150 -307 150q-160 0 -263 -106.5t-103 -270.5q0 -176 120 -277q109 -90 246 -90q172 0 307 144v-420q-203 -68 -317 -68q-150 0 -296 63.5t-251 174.5q-180 192 -180 471zM473 -401l238 307l202 -142l-282 -276z " />
<glyph unicode="&#xc8;" horiz-adv-x="1001" d="M143 0v1366h777v-301h-422v-227h399v-301h-399v-236h422v-301h-777zM223 1712l191 172l295 -280l-138 -129z" />
<glyph unicode="&#xc9;" horiz-adv-x="1001" d="M143 0v1366h777v-301h-422v-227h399v-301h-399v-236h422v-301h-777zM401 1604l297 280l189 -172l-348 -237z" />
<glyph unicode="&#xca;" horiz-adv-x="1001" d="M123 1630l418 246l415 -246l-98 -155l-317 159l-320 -159zM145 0v1366h777v-301h-422v-227h399v-301h-399v-236h422v-301h-777z" />
<glyph unicode="&#xcb;" horiz-adv-x="1001" d="M109 1675q0 72 53 124t125 52q74 0 126 -52t52 -126t-52.5 -126t-126 -52t-125.5 52t-52 128zM143 0v1366h777v-301h-422v-227h399v-301h-399v-236h422v-301h-777zM586 1675q0 72 53 124t125 52q74 0 126 -52t52 -126t-52 -126t-126 -52t-126 52t-52 128z" />
<glyph unicode="&#xcc;" horiz-adv-x="641" d="M-18 1712l190 172l295 -280l-137 -129zM143 0v1366h355v-1366h-355z" />
<glyph unicode="&#xcd;" horiz-adv-x="641" d="M143 0v1366h355v-1366h-355zM195 1604l297 280l188 -172l-348 -237z" />
<glyph unicode="&#xce;" horiz-adv-x="641" d="M-61 1630l389 246l389 -246l-96 -155l-293 159l-291 -159zM143 0v1366h355v-1366h-355z" />
<glyph unicode="&#xcf;" horiz-adv-x="641" d="M-61 1675q0 72 53 124t125 52q74 0 126 -52t52 -126t-52.5 -126t-126 -52t-125.5 52t-52 128zM143 0v1366h355v-1366h-355zM362 1675q0 72 53.5 124t125.5 52q74 0 126 -52t52 -126t-52.5 -126t-126 -52t-126 52t-52.5 128z" />
<glyph unicode="&#xd0;" horiz-adv-x="1423" d="M20 588v231h123v547h525q272 0 472.5 -204t200.5 -480q0 -274 -200.5 -478t-472.5 -204h-525v588h-123zM498 301h82q193 0 292 115q98 109 99 266q0 160 -99 268q-100 115 -292 115h-82v-246h233v-231h-233v-287z" />
<glyph unicode="&#xd1;" horiz-adv-x="1648" d="M143 0v1366h355l653 -836v836h354v-1366h-354l-653 836v-836h-355zM459 1509q0 94 28 158q27 61 81.5 97t119.5 36q59 0 189 -43q92 -29 127 -28q59 0 79 73h177q-14 -121 -37 -166q-61 -127 -215 -127q-72 0 -170 35q-102 39 -140 39q-29 0 -43 -14.5t-24 -59.5h-172z " />
<glyph unicode="&#xd2;" horiz-adv-x="1675" d="M82 692q0 154 67.5 297.5t188.5 245.5q205 172 500 172q342 0 559 -229q197 -207 196 -500q0 -162 -67.5 -307.5t-188.5 -247.5q-207 -172 -506 -172q-324 0 -536.5 211t-212.5 530zM453 684q0 -164 111.5 -276.5t273.5 -112.5q160 0 272.5 112.5t112.5 272.5 q0 158 -113 270.5t-272 112.5q-158 0 -271.5 -111.5t-113.5 -267.5zM500 1712l190 172l295 -280l-137 -129z" />
<glyph unicode="&#xd3;" horiz-adv-x="1675" d="M82 692q0 154 67.5 297.5t188.5 245.5q205 172 500 172q342 0 559 -229q197 -207 196 -500q0 -162 -67.5 -307.5t-188.5 -247.5q-207 -172 -506 -172q-324 0 -536.5 211t-212.5 530zM453 684q0 -164 111.5 -276.5t273.5 -112.5q160 0 272.5 112.5t112.5 272.5 q0 158 -113 270.5t-272 112.5q-158 0 -271.5 -111.5t-113.5 -267.5zM696 1604l297 280l189 -172l-348 -237z" />
<glyph unicode="&#xd4;" horiz-adv-x="1675" d="M82 692q0 154 67.5 297.5t188.5 245.5q205 172 500 172q342 0 559 -229q197 -207 196 -500q0 -162 -67.5 -307.5t-188.5 -247.5q-207 -172 -506 -172q-324 0 -536.5 211t-212.5 530zM414 1630l417 246l416 -246l-98 -155l-318 159l-319 -159zM453 684 q0 -164 111.5 -276.5t273.5 -112.5q160 0 272.5 112.5t112.5 272.5q0 158 -113 270.5t-272 112.5q-158 0 -271.5 -111.5t-113.5 -267.5z" />
<glyph unicode="&#xd5;" horiz-adv-x="1675" d="M82 692q0 154 67.5 297.5t188.5 245.5q205 172 500 172q342 0 559 -229q197 -207 196 -500q0 -162 -67.5 -307.5t-188.5 -247.5q-207 -172 -506 -172q-324 0 -536.5 211t-212.5 530zM453 684q0 -164 111.5 -276.5t273.5 -112.5q160 0 272.5 112.5t112.5 272.5 q0 158 -113 270.5t-272 112.5q-158 0 -271.5 -111.5t-113.5 -267.5zM457 1509q0 94 28 158q27 61 81.5 97t119.5 36q59 0 188 -43q92 -29 127 -28q59 0 80 73h176q-14 -121 -36 -166q-61 -127 -215 -127q-72 0 -170 35q-102 39 -140 39q-29 0 -43 -14.5t-24 -59.5h-172z" />
<glyph unicode="&#xd6;" horiz-adv-x="1675" d="M82 692q0 154 67.5 297.5t188.5 245.5q205 172 500 172q342 0 559 -229q197 -207 196 -500q0 -162 -67.5 -307.5t-188.5 -247.5q-207 -172 -506 -172q-324 0 -536.5 211t-212.5 530zM408 1675q0 72 53 124t125 52q74 0 126 -52t52 -126t-52.5 -126t-126 -52t-125.5 52 t-52 128zM453 684q0 -164 111.5 -276.5t273.5 -112.5q160 0 272.5 112.5t112.5 272.5q0 158 -113 270.5t-272 112.5q-158 0 -271.5 -111.5t-113.5 -267.5zM899 1675q0 72 53.5 124t124.5 52q74 0 126 -52t52 -126t-52 -126t-125.5 -52t-126 52t-52.5 128z" />
<glyph unicode="&#xd7;" d="M190 422l261 260l-261 262l164 164l260 -262l263 262l163 -164l-260 -262l260 -260l-163 -164l-263 260l-260 -260z" />
<glyph unicode="&#xd8;" horiz-adv-x="1675" d="M55 86l168 162q-141 207 -141 422q0 317 214 526t538 209q182 0 346 -66q57 -25 125 -79l172 167l139 -147l-164 -162q143 -213 143 -434q0 -313 -216 -523t-537 -210q-254 0 -473 149l-172 -161zM453 684q0 -104 47 -180l526 504q-82 53 -192 53q-154 0 -267.5 -112.5 t-113.5 -264.5zM637 346q113 -51 197 -51q162 0 276.5 110.5t114.5 266.5q0 90 -49 190z" />
<glyph unicode="&#xd9;" horiz-adv-x="1476" d="M143 578v788h355v-739q0 -119 6 -160t33 -84q61 -104 198 -104q68 0 123 29.5t84 80.5q23 39 30 84t7 154v739h354v-788q0 -150 -29.5 -243t-103.5 -177q-170 -193 -471 -193q-156 0 -286 54.5t-201 150.5q-99 132 -99 408zM399 1712l191 172l295 -280l-137 -129z" />
<glyph unicode="&#xda;" horiz-adv-x="1476" d="M143 578v788h355v-739q0 -119 6 -160t33 -84q61 -104 198 -104q68 0 123 29.5t84 80.5q23 39 30 84t7 154v739h354v-788q0 -150 -29.5 -243t-103.5 -177q-170 -193 -471 -193q-156 0 -286 54.5t-201 150.5q-99 132 -99 408zM612 1604l297 280l189 -172l-348 -237z" />
<glyph unicode="&#xdb;" horiz-adv-x="1476" d="M143 578v788h355v-739q0 -119 6 -160t33 -84q61 -104 198 -104q68 0 123 29.5t84 80.5q23 39 30 84t7 154v739h354v-788q0 -150 -29.5 -243t-103.5 -177q-170 -193 -471 -193q-156 0 -286 54.5t-201 150.5q-99 132 -99 408zM330 1630l418 246l415 -246l-98 -155l-317 159 l-320 -159z" />
<glyph unicode="&#xdc;" horiz-adv-x="1476" d="M143 578v788h355v-739q0 -119 6 -160t33 -84q61 -104 198 -104q68 0 123 29.5t84 80.5q23 39 30 84t7 154v739h354v-788q0 -150 -29.5 -243t-103.5 -177q-170 -193 -471 -193q-156 0 -286 54.5t-201 150.5q-99 132 -99 408zM330 1675q0 72 53 124t125 52q74 0 126 -52 t52 -126t-52 -126t-126 -52t-126 52t-52 128zM821 1675q0 72 53.5 124t124.5 52q74 0 126.5 -52t52.5 -126t-52.5 -126t-126 -52t-126 52t-52.5 128z" />
<glyph unicode="&#xdd;" horiz-adv-x="1310" d="M-25 1366h424l258 -373l248 373h430l-512 -711v-655h-354v655zM528 1604l297 280l189 -172l-348 -237z" />
<glyph unicode="&#xde;" horiz-adv-x="1226" d="M143 0v1366h355v-192h209q121 0 198.5 -26t143.5 -89q133 -127 133 -338q0 -209 -111 -332q-113 -127 -352 -127h-221v-262h-355zM498 547h116q100 0 148.5 41t48.5 129q0 172 -195 172h-118v-342z" />
<glyph unicode="&#xdf;" horiz-adv-x="1216" d="M113 0v1096q0 219 118 323q127 111 349 111q207 0 329.5 -110.5t122.5 -297.5q0 -86 -37 -150.5t-123 -129.5q111 -53 156 -97q113 -102 113 -294q0 -111 -42 -212.5t-112 -158.5q-133 -109 -383 -109q-37 0 -67 2v279q104 0 161 45q82 59 82 172q0 104 -64.5 163.5 t-178.5 61.5v264q180 0 180 148q0 66 -37 103.5t-100 37.5q-98 0 -125 -78q-14 -41 -15 -178v-991h-327z" />
<glyph unicode="&#xe0;" horiz-adv-x="1269" d="M76 467q0 207 134 349t333 142q174 0 288 -120v90h328v-928h-328v102q-104 -133 -286 -133q-199 0 -334 143.5t-135 354.5zM334 1343l209 150l258 -315l-152 -113zM418 467q0 -90 62.5 -152.5t150.5 -62.5t149.5 62.5t61.5 150.5t-62.5 149.5t-150.5 61.5 q-86 0 -148.5 -62.5t-62.5 -146.5z" />
<glyph unicode="&#xe1;" horiz-adv-x="1269" d="M76 467q0 207 134 349t333 142q174 0 288 -120v90h328v-928h-328v102q-104 -133 -286 -133q-199 0 -334 143.5t-135 354.5zM418 467q0 -90 62.5 -152.5t150.5 -62.5t149.5 62.5t61.5 150.5t-62.5 149.5t-150.5 61.5q-86 0 -148.5 -62.5t-62.5 -146.5zM504 1178l258 315 l209 -150l-316 -278z" />
<glyph unicode="&#xe2;" horiz-adv-x="1269" d="M76 467q0 207 134 349t333 142q174 0 288 -120v90h328v-928h-328v102q-104 -133 -286 -133q-199 0 -334 143.5t-135 354.5zM240 1223l399 301l408 -301l-146 -158l-262 201l-260 -201zM418 467q0 -90 62.5 -152.5t150.5 -62.5t149.5 62.5t61.5 150.5t-62.5 149.5 t-150.5 61.5q-86 0 -148.5 -62.5t-62.5 -146.5z" />
<glyph unicode="&#xe3;" horiz-adv-x="1269" d="M76 467q0 207 134 349t333 142q174 0 288 -120v90h328v-928h-328v102q-104 -133 -286 -133q-199 0 -334 143.5t-135 354.5zM305 1075q0 59 10 103q18 84 69.5 133t119.5 49q49 0 182 -49q84 -31 119 -31q29 0 42 15.5t25 64.5h162q-16 -152 -65 -218.5t-142 -66.5 q-74 0 -180 41q-94 35 -122.5 35t-41 -15.5t-22.5 -60.5h-156zM418 467q0 -90 62.5 -152.5t150.5 -62.5t149.5 62.5t61.5 150.5t-62.5 149.5t-150.5 61.5q-86 0 -148.5 -62.5t-62.5 -146.5z" />
<glyph unicode="&#xe4;" horiz-adv-x="1269" d="M76 467q0 207 134 349t333 142q174 0 288 -120v90h328v-928h-328v102q-104 -133 -286 -133q-199 0 -334 143.5t-135 354.5zM233 1251q0 72 53.5 124t125.5 52q74 0 126 -52t52 -125.5t-52.5 -126t-126 -52.5t-126 52t-52.5 128zM418 467q0 -90 62.5 -152.5t150.5 -62.5 t149.5 62.5t61.5 150.5t-62.5 149.5t-150.5 61.5q-86 0 -148.5 -62.5t-62.5 -146.5zM698 1251q0 72 53.5 124t125.5 52q74 0 126 -52t52 -125.5t-52.5 -126t-126 -52.5t-126 52t-52.5 128z" />
<glyph unicode="&#xe5;" horiz-adv-x="1269" d="M76 467q0 207 134 349t333 142q174 0 288 -120v90h328v-928h-328v102q-104 -133 -286 -133q-199 0 -334 143.5t-135 354.5zM360 1286q0 94 75 151.5t200 57.5h14q125 0 200 -57.5t75 -153.5t-75 -154.5t-200 -58.5h-14q-125 0 -200 58.5t-75 156.5zM418 467 q0 -90 62.5 -152.5t150.5 -62.5t149.5 62.5t61.5 150.5t-62.5 149.5t-150.5 61.5q-86 0 -148.5 -62.5t-62.5 -146.5zM532 1286q0 -39 30 -61.5t79 -22.5q51 0 81 21.5t30 60.5t-30 60.5t-81 21.5q-49 0 -79 -22.5t-30 -57.5z" />
<glyph unicode="&#xe6;" horiz-adv-x="1777" d="M76 272q0 141 104.5 224.5t282.5 83.5q111 0 237 -48q0 94 -36 132q-53 59 -189 59q-94 0 -254 -51v246q152 43 275 43q154 0 254 -64q41 -25 92 -100q113 164 354 164q152 0 272.5 -65t178.5 -177q55 -113 55 -307h-694q4 -100 59 -155.5t152 -55.5q113 0 151 86h318 q-43 -152 -169 -235t-311 -83q-281 0 -366 181q-147 -176 -383 -177q-172 0 -277.5 82t-105.5 217zM397 297q0 -47 41 -75.5t107 -28.5q68 0 116 30.5t48 73.5q0 41 -49.5 69.5t-120.5 28.5q-63 0 -102.5 -26.5t-39.5 -71.5zM1016 602h381q-45 152 -191 152 q-139 0 -190 -152z" />
<glyph unicode="&#xe7;" horiz-adv-x="886" d="M76 457q0 215 147.5 357t368.5 142q119 0 221 -51v-278q-86 57 -170 57q-98 0 -161.5 -63.5t-63.5 -161.5q0 -94 64.5 -157.5t160.5 -63.5q90 0 170 61v-279q-117 -51 -229 -51q-213 0 -360.5 141.5t-147.5 346.5zM264 -397l240 293l188 -121l-278 -264z" />
<glyph unicode="&#xe8;" horiz-adv-x="1171" d="M76 457q0 229 139 363t376.5 134t372 -138t134.5 -380v-33h-690q2 -209 198 -208q59 0 95 19t67 69h315q-31 -104 -82 -164q-133 -156 -395 -156q-242 0 -386 134.5t-144 359.5zM285 1343l209 150l258 -315l-152 -113zM416 594h377q-16 70 -67.5 109.5t-125.5 39.5 t-123 -39.5t-61 -109.5z" />
<glyph unicode="&#xe9;" horiz-adv-x="1171" d="M76 457q0 229 139 363t376.5 134t372 -138t134.5 -380v-33h-690q2 -209 198 -208q59 0 95 19t67 69h315q-31 -104 -82 -164q-133 -156 -395 -156q-242 0 -386 134.5t-144 359.5zM416 594h377q-16 70 -67.5 109.5t-125.5 39.5t-123 -39.5t-61 -109.5zM463 1178l258 315 l209 -150l-316 -278z" />
<glyph unicode="&#xea;" horiz-adv-x="1171" d="M76 457q0 229 139 363t376.5 134t372 -138t134.5 -380v-33h-690q2 -209 198 -208q59 0 95 19t67 69h315q-31 -104 -82 -164q-133 -156 -395 -156q-242 0 -386 134.5t-144 359.5zM205 1223l399 301l408 -301l-146 -158l-262 201l-260 -201zM416 594h377 q-16 70 -67.5 109.5t-125.5 39.5t-123 -39.5t-61 -109.5z" />
<glyph unicode="&#xeb;" horiz-adv-x="1171" d="M76 457q0 229 139 363t376.5 134t372 -138t134.5 -380v-33h-690q2 -209 198 -208q59 0 95 19t67 69h315q-31 -104 -82 -164q-133 -156 -395 -156q-242 0 -386 134.5t-144 359.5zM190 1251q0 72 53.5 124t125.5 52q74 0 126 -52t52 -125.5t-52.5 -126t-126 -52.5t-126 52 t-52.5 128zM416 594h377q-16 70 -67.5 109.5t-125.5 39.5t-123 -39.5t-61 -109.5zM655 1251q0 72 53.5 124t125.5 52q74 0 126 -52t52 -125.5t-52.5 -126t-126 -52.5t-126 52t-52.5 128z" />
<glyph unicode="&#xec;" horiz-adv-x="550" d="M-39 1343l209 150l258 -315l-152 -113zM113 0v928h327v-928h-327z" />
<glyph unicode="&#xed;" horiz-adv-x="550" d="M113 0v928h327v-928h-327zM152 1178l258 315l208 -150l-315 -278z" />
<glyph unicode="&#xee;" horiz-adv-x="550" d="M-80 1223l363 301l362 -301l-145 -158l-217 201l-224 -201zM113 0v928h327v-928h-327z" />
<glyph unicode="&#xef;" horiz-adv-x="550" d="M-106 1251q0 72 53 124t125 52q74 0 126 -52t52 -125.5t-52.5 -126t-126 -52.5t-125.5 52t-52 128zM113 0v928h327v-928h-327zM317 1251q0 72 53.5 124t125.5 52q74 0 126 -52t52 -125.5t-52.5 -126t-126 -52.5t-126 52t-52.5 128z" />
<glyph unicode="&#xf0;" horiz-adv-x="1267" d="M76 467q0 221 151.5 355t407.5 139q-49 66 -115 124l-178 -114l-100 164l123 79q-55 35 -123 70l129 223q133 -57 233 -135l207 129l104 -168l-143 -90q422 -362 422 -758q0 -231 -154.5 -373.5t-402.5 -142.5t-404.5 139.5t-156.5 358.5zM422 469q0 -90 62.5 -152.5 t150.5 -62.5t150.5 62.5t62.5 150.5t-62.5 150.5t-150.5 62.5t-150.5 -62.5t-62.5 -148.5z" />
<glyph unicode="&#xf1;" horiz-adv-x="1202" d="M113 0v928h327v-117q66 76 132.5 106.5t164.5 30.5q168 0 269 -102q49 -49 67.5 -104.5t18.5 -151.5v-590h-328v469q0 109 -21 147q-35 72 -131 72q-88 0 -137 -61q-35 -41 -35 -129v-498h-327zM266 1075q0 59 10 103q18 84 69.5 133t119.5 49q49 0 182 -49 q82 -31 119 -31q29 0 42 15.5t26 64.5h161q-16 -152 -65 -218.5t-142 -66.5q-74 0 -180 41q-94 35 -122.5 35t-41 -15.5t-22.5 -60.5h-156z" />
<glyph unicode="&#xf2;" horiz-adv-x="1267" d="M76 473q0 211 158.5 350.5t398.5 139.5q246 0 402.5 -139.5t156.5 -358.5q0 -221 -156.5 -360.5t-406.5 -139.5q-244 0 -398.5 141.5t-154.5 366.5zM319 1343l209 150l258 -315l-151 -113zM422 469q0 -90 62.5 -152.5t150.5 -62.5t149.5 62.5t61.5 150.5 q0 90 -62.5 151.5t-150.5 61.5q-86 0 -148.5 -62.5t-62.5 -148.5z" />
<glyph unicode="&#xf3;" horiz-adv-x="1267" d="M76 473q0 211 158.5 350.5t398.5 139.5q246 0 402.5 -139.5t156.5 -358.5q0 -221 -156.5 -360.5t-406.5 -139.5q-244 0 -398.5 141.5t-154.5 366.5zM422 469q0 -90 62.5 -152.5t150.5 -62.5t149.5 62.5t61.5 150.5q0 90 -62.5 151.5t-150.5 61.5q-86 0 -148.5 -62.5 t-62.5 -148.5zM489 1178l259 315l208 -150l-315 -278z" />
<glyph unicode="&#xf4;" horiz-adv-x="1267" d="M76 473q0 211 158.5 350.5t398.5 139.5q246 0 402.5 -139.5t156.5 -358.5q0 -221 -156.5 -360.5t-406.5 -139.5q-244 0 -398.5 141.5t-154.5 366.5zM231 1223l400 301l407 -301l-145 -158l-262 201l-260 -201zM422 469q0 -90 62.5 -152.5t150.5 -62.5t149.5 62.5 t61.5 150.5q0 90 -62.5 151.5t-150.5 61.5q-86 0 -148.5 -62.5t-62.5 -148.5z" />
<glyph unicode="&#xf5;" horiz-adv-x="1267" d="M76 473q0 211 158.5 350.5t398.5 139.5q246 0 402.5 -139.5t156.5 -358.5q0 -221 -156.5 -360.5t-406.5 -139.5q-244 0 -398.5 141.5t-154.5 366.5zM305 1075q0 59 10 103q18 84 69.5 133t119.5 49q49 0 182 -49q84 -31 119 -31q29 0 42 15.5t25 64.5h162 q-16 -152 -65 -218.5t-142 -66.5q-74 0 -180 41q-94 35 -122.5 35t-41 -15.5t-22.5 -60.5h-156zM422 469q0 -90 62.5 -152.5t150.5 -62.5t149.5 62.5t61.5 150.5q0 90 -62.5 151.5t-150.5 61.5q-86 0 -148.5 -62.5t-62.5 -148.5z" />
<glyph unicode="&#xf6;" horiz-adv-x="1267" d="M76 473q0 211 158.5 350.5t398.5 139.5q246 0 402.5 -139.5t156.5 -358.5q0 -221 -156.5 -360.5t-406.5 -139.5q-244 0 -398.5 141.5t-154.5 366.5zM231 1251q0 72 53.5 124t125.5 52q74 0 126 -52t52 -125.5t-52.5 -126t-126 -52.5t-126 52t-52.5 128zM422 469 q0 -90 62.5 -152.5t150.5 -62.5t149.5 62.5t61.5 150.5q0 90 -62.5 151.5t-150.5 61.5q-86 0 -148.5 -62.5t-62.5 -148.5zM696 1251q0 72 53.5 124t124.5 52q74 0 126.5 -52t52.5 -125.5t-52.5 -126t-126 -52.5t-126 52t-52.5 128z" />
<glyph unicode="&#xf7;" d="M129 567v232h969v-232h-969zM467 330q0 57 43 99t100 42q59 0 101.5 -42t42.5 -101.5t-42 -101.5t-101.5 -42t-101.5 43.5t-42 102.5zM467 1038q0 57 43 99.5t100 42.5q59 0 101.5 -42t42.5 -101.5t-42 -101.5t-101.5 -42t-101.5 43t-42 102z" />
<glyph unicode="&#xf8;" horiz-adv-x="1267" d="M27 74l137 106q-88 131 -88 289q0 109 48 209t136 170q143 115 383 115q190 0 356 -105l154 119l96 -121l-139 -117q80 -121 80 -256q0 -240 -151.5 -379t-411.5 -139q-221 0 -353 107l-151 -117zM418 469q0 -43 20 -88l316 260q-51 39 -111 39q-94 0 -159.5 -61.5 t-65.5 -149.5zM522 287q49 -33 109 -33q90 0 153.5 61.5t63.5 147.5q0 29 -14 78z" />
<glyph unicode="&#xf9;" horiz-adv-x="1212" d="M113 338v590h327v-527q0 -170 168 -170q166 0 166 170v527h328v-590q0 -184 -127 -280.5t-368.5 -96.5t-367.5 96.5t-126 280.5zM291 1343l209 150l258 -315l-152 -113z" />
<glyph unicode="&#xfa;" horiz-adv-x="1212" d="M113 338v590h327v-527q0 -170 168 -170q166 0 166 170v527h328v-590q0 -184 -127 -280.5t-368.5 -96.5t-367.5 96.5t-126 280.5zM483 1178l258 315l209 -150l-315 -278z" />
<glyph unicode="&#xfb;" horiz-adv-x="1212" d="M113 338v590h327v-527q0 -170 168 -170q166 0 166 170v527h328v-590q0 -184 -127 -280.5t-368.5 -96.5t-367.5 96.5t-126 280.5zM217 1223l399 301l408 -301l-145 -158l-263 201l-260 -201z" />
<glyph unicode="&#xfc;" horiz-adv-x="1212" d="M113 338v590h327v-527q0 -170 168 -170q166 0 166 170v527h328v-590q0 -184 -127 -280.5t-368.5 -96.5t-367.5 96.5t-126 280.5zM205 1251q0 72 53 124t125 52q74 0 126 -52t52 -125.5t-52 -126t-126 -52.5t-126 52t-52 128zM670 1251q0 72 53 124t125 52q74 0 126 -52 t52 -125.5t-52 -126t-126 -52.5t-126 52t-52 128z" />
<glyph unicode="&#xfd;" horiz-adv-x="1245" d="M0 928h381l248 -475l241 475h375l-745 -1393h-367l316 590zM498 1178l258 315l209 -150l-316 -278z" />
<glyph unicode="&#xfe;" horiz-adv-x="1269" d="M113 -465v1966h327v-676q106 133 287 133q96 0 188.5 -40.5t157.5 -114.5q123 -131 123 -342q0 -233 -166 -377q-133 -115 -297 -115q-174 0 -293 121v-555h-327zM430 465q0 -86 63.5 -149.5t149.5 -63.5q84 0 147.5 63.5t63.5 147.5q0 88 -62.5 150.5t-148.5 62.5 q-88 0 -150.5 -62.5t-62.5 -148.5z" />
<glyph unicode="&#xff;" horiz-adv-x="1245" d="M0 928h381l248 -475l241 475h375l-745 -1393h-367l316 590zM227 1251q0 72 53.5 124t125.5 52q74 0 126 -52t52 -125.5t-52.5 -126t-126 -52.5t-126 52t-52.5 128zM692 1251q0 72 53.5 124t124.5 52q74 0 126.5 -52t52.5 -125.5t-52.5 -126t-126 -52.5t-126 52t-52.5 128 z" />
<glyph unicode="&#x152;" horiz-adv-x="2076" d="M82 684q0 299 213 513t510 214q129 0 228.5 -43t193.5 -137v135h768v-301h-412v-227h385v-301h-385v-236h412v-301h-768v143q-188 -186 -428 -186q-291 0 -504 216t-213 511zM453 690q0 -162 111.5 -274.5t269 -112.5t269 111.5t111.5 269.5t-111.5 270.5t-268.5 112.5 q-156 0 -268.5 -111.5t-112.5 -265.5z" />
<glyph unicode="&#x153;" horiz-adv-x="1916" d="M76 459q0 225 147.5 364.5t388.5 139.5q117 0 202 -34t173 -114q119 139 356 139q317 0 441 -237q57 -113 59 -309h-698q12 -111 61 -160t146 -49q106 0 155 88h318q-31 -152 -159 -237t-323 -85q-125 0 -208.5 38t-147.5 124q-94 -96 -172 -129t-207 -33 q-258 0 -399 148q-133 143 -133 346zM418 465q0 -90 58.5 -153.5t139.5 -63.5q84 0 143.5 62.5t59.5 150.5t-58.5 149.5t-142 61.5t-142 -60.5t-58.5 -146.5zM1155 596h383q-47 150 -190 149q-152 1 -193 -149z" />
<glyph unicode="&#x178;" horiz-adv-x="1310" d="M-25 1366h424l258 -373l248 373h430l-512 -711v-655h-354v655zM240 1675q0 72 53 124t125 52q74 0 126 -52t52 -126t-52 -126t-126 -52t-126 52t-52 128zM731 1675q0 72 53.5 124t124.5 52q74 0 126 -52t52 -126t-52 -126t-125.5 -52t-126 52t-52.5 128z" />
<glyph unicode="&#x2c6;" horiz-adv-x="1024" d="M109 1223l399 301l407 -301l-145 -158l-262 201l-260 -201z" />
<glyph unicode="&#x2dc;" horiz-adv-x="1024" d="M147 1075q0 59 11 103q18 84 69.5 133t118.5 49q49 0 182 -49q82 -31 119 -31q29 0 42 15.5t26 64.5h162q-16 -152 -65.5 -218.5t-141.5 -66.5q-74 0 -181 41q-94 35 -122.5 35t-41 -15.5t-22.5 -60.5h-156z" />
<glyph unicode="&#x2000;" horiz-adv-x="946" />
<glyph unicode="&#x2001;" horiz-adv-x="1892" />
<glyph unicode="&#x2002;" horiz-adv-x="946" />
<glyph unicode="&#x2003;" horiz-adv-x="1892" />
<glyph unicode="&#x2004;" horiz-adv-x="630" />
<glyph unicode="&#x2005;" horiz-adv-x="473" />
<glyph unicode="&#x2006;" horiz-adv-x="315" />
<glyph unicode="&#x2007;" horiz-adv-x="315" />
<glyph unicode="&#x2008;" horiz-adv-x="235" />
<glyph unicode="&#x2009;" horiz-adv-x="376" />
<glyph unicode="&#x200a;" horiz-adv-x="104" />
<glyph unicode="&#x2010;" horiz-adv-x="518" d="M0 348v273h518v-273h-518z" />
<glyph unicode="&#x2011;" horiz-adv-x="518" d="M0 348v273h518v-273h-518z" />
<glyph unicode="&#x2013;" d="M129 348v273h969v-273h-969z" />
<glyph unicode="&#x2014;" horiz-adv-x="1570" d="M0 348v273h1571v-273h-1571z" />
<glyph unicode="&#x2018;" horiz-adv-x="706" d="M96 764l334 602h209l-233 -602h-310z" />
<glyph unicode="&#x2019;" horiz-adv-x="706" d="M68 764l235 602h307l-331 -602h-211z" />
<glyph unicode="&#x201a;" horiz-adv-x="706" d="M68 -254l235 600h307l-331 -600h-211z" />
<glyph unicode="&#x201c;" horiz-adv-x="1171" d="M96 764l334 602h209l-233 -602h-310zM561 764l332 602h211l-236 -602h-307z" />
<glyph unicode="&#x201d;" horiz-adv-x="1171" d="M68 764l235 602h307l-331 -602h-211zM532 764l234 602h309l-334 -602h-209z" />
<glyph unicode="&#x201e;" horiz-adv-x="1171" d="M68 -254l235 600h307l-331 -600h-211zM532 -254l234 600h309l-334 -600h-209z" />
<glyph unicode="&#x2022;" horiz-adv-x="1366" d="M401 692q0 119 84 202t205 83q113 0 196 -84t83 -199q0 -119 -83 -201.5t-200 -82.5t-201 82.5t-84 199.5z" />
<glyph unicode="&#x2026;" horiz-adv-x="1863" d="M98 176q0 84 62.5 146.5t148.5 62.5q88 0 150.5 -61.5t62.5 -149.5t-61.5 -150.5t-149.5 -62.5q-90 0 -151.5 62.5t-61.5 152.5zM719 176q0 84 62.5 146.5t148.5 62.5q88 0 150.5 -61.5t62.5 -149.5t-61.5 -150.5t-149.5 -62.5q-90 0 -151.5 62.5t-61.5 152.5zM1341 176 q0 84 62.5 146.5t148.5 62.5q88 0 150.5 -61.5t62.5 -149.5t-61.5 -150.5t-149.5 -62.5q-90 0 -151.5 62.5t-61.5 152.5z" />
<glyph unicode="&#x202f;" horiz-adv-x="376" />
<glyph unicode="&#x2039;" horiz-adv-x="636" d="M57 467l312 444l180 -125l-227 -319l233 -315l-186 -132z" />
<glyph unicode="&#x203a;" horiz-adv-x="636" d="M82 152l233 315l-227 319l180 125l312 -444l-312 -447z" />
<glyph unicode="&#x205f;" horiz-adv-x="473" />
<glyph unicode="&#x20ac;" horiz-adv-x="1441" d="M35 598l74 176h124q39 283 246 458t502 175q244 0 424 -117l-148 -344q-111 117 -276 117q-131 0 -233.5 -80t-137.5 -209h582l-74 -174h-512q35 -139 136.5 -222t238.5 -83q166 0 281 121v-420q-135 -45 -281 -45q-297 0 -509 183t-241 464h-196z" />
<glyph unicode="&#x2122;" horiz-adv-x="1591" d="M0 1184v182h539v-182h-164v-596h-213v596h-162zM580 588l129 778h209l149 -399l158 399h211l114 -778h-213l-53 422l-174 -422h-92l-166 422l-61 -422h-211z" />
</font>
</defs>
</svg>
