<?xml version="1.0" standalone="no"?>
<!DOCTYPE svg PUBLIC "-//W3C//DTD SVG 1.1//EN" "http://www.w3.org/Graphics/SVG/1.1/DTD/svg11.dtd" >
<svg xmlns="http://www.w3.org/2000/svg">
<metadata>
This is a custom SVG webfont generated by Font Squirrel.
Designer    : FontSitecom
Foundry URL : httpwwwfontsitecom
</metadata>
<defs>
<font id="webfontaIAO9rHm" horiz-adv-x="1228" >
<font-face units-per-em="2048" ascent="1542" descent="-506" />
<missing-glyph horiz-adv-x="512" />
<glyph unicode=" "  horiz-adv-x="512" />
<glyph unicode="&#x09;" horiz-adv-x="512" />
<glyph unicode="&#xa0;" horiz-adv-x="512" />
<glyph unicode="!" horiz-adv-x="688" d="M102 184q0 88 59.5 145.5t151.5 57.5q88 0 145.5 -56.5t57.5 -146.5t-59.5 -150.5t-147.5 -60.5t-147.5 60.5t-59.5 150.5zM170 442l115 924h344l-113 -924h-346z" />
<glyph unicode="&#x22;" horiz-adv-x="833" d="M176 817l19 549h284l-117 -549h-186zM557 817l18 549h285l-117 -549h-186z" />
<glyph unicode="#" d="M53 375l29 235h203l32 172h-184l29 236h200l68 348h266l-67 -348h149l66 348h270l-67 -348h184l-29 -236h-198l-33 -172h186l-29 -235h-202l-72 -375h-270l71 375h-147l-74 -375h-266l74 375h-189zM551 610h149l33 172h-147z" />
<glyph unicode="$" d="M94 129l154 258q164 -109 282 -108q84 0 134.5 36.5t50.5 96.5q0 47 -32 77.5t-126 77.5q-158 82 -215 140q-98 92 -98 251q0 158 98 267.5t274 148.5l29 244h209l-29 -238q160 -25 310 -118l-150 -261q-133 100 -240 101q-70 0 -109.5 -32t-39.5 -85q0 -49 36 -83 t136 -79q166 -76 232.5 -162t66.5 -223q0 -174 -109.5 -293.5t-304.5 -154.5l-28 -242h-209l28 238q-164 24 -350 143z" />
<glyph unicode="%" horiz-adv-x="1697" d="M123 985q0 174 94 285.5t242 111.5q131 0 207.5 -84t76.5 -229q0 -154 -88 -283q-82 -119 -239 -118q-135 0 -214 86t-79 231zM309 985q0 -78 28 -121t77 -43q61 0 102 72t41 180q0 156 -96 156q-66 0 -109 -70t-43 -174zM397 0l785 1366h170l-785 -1366h-170zM1004 301 q0 174 94 285.5t241 111.5q133 0 210 -85t77 -228q0 -154 -88 -283q-86 -119 -240 -118q-137 0 -215.5 86t-78.5 231zM1190 301q0 -76 28.5 -120t77.5 -44q61 0 102.5 72t41.5 180q0 156 -97 156q-66 0 -109.5 -70t-43.5 -174z" />
<glyph unicode="&#x26;" horiz-adv-x="1527" d="M94 350q0 221 225 340q63 35 228 86q-68 94 -92.5 157.5t-24.5 137.5q0 143 117 232.5t301 89.5q182 0 293.5 -97.5t111.5 -255.5q0 -152 -131 -247q-39 -31 -157 -93l155 -213l160 119l145 -196l-157 -125l202 -285h-370l-80 115q-233 -154 -481 -154q-203 0 -324 106.5 t-121 282.5zM438 358q0 -49 42 -80.5t108 -31.5q104 0 272 92l-166 233q-139 -63 -197.5 -112.5t-58.5 -100.5zM733 1049q0 -43 68 -134q2 -2 22 -30q90 41 124 74.5t34 84.5q0 49 -35 80t-92 31q-53 0 -87 -30.5t-34 -75.5z" />
<glyph unicode="'" horiz-adv-x="452" d="M176 817l19 549h284l-117 -549h-186z" />
<glyph unicode="(" horiz-adv-x="772" d="M139 389q0 297 94.5 567.5t307.5 577.5l223 -133q-330 -483 -330 -1028q0 -356 115 -625l-256 -110q-154 376 -154 751z" />
<glyph unicode=")" horiz-adv-x="772" d="M37 -227q330 481 330 1028q0 352 -115 624l254 109q156 -375 156 -752q0 -297 -95.5 -567t-306.5 -577z" />
<glyph unicode="*" d="M317 1202l91 195l215 -121l12 246l213 -25l-47 -244l237 66l41 -211l-243 -29l135 -207l-189 -104l-104 223l-154 -190l-157 145l182 168z" />
<glyph unicode="+" d="M131 561v268h375v365h274v-365h375v-268h-375v-368h-274v368h-375z" />
<glyph unicode="," horiz-adv-x="628" d="M-61 -305l309 647h313l-373 -647h-249z" />
<glyph unicode="-" horiz-adv-x="520" d="M-16 328l34 286h521l-35 -286h-520z" />
<glyph unicode="." horiz-adv-x="628" d="M74 182q0 86 60.5 146.5t144.5 60.5q90 0 150 -61.5t60 -151.5q0 -82 -60 -142.5t-144 -60.5q-86 0 -148.5 62.5t-62.5 146.5z" />
<glyph unicode="/" horiz-adv-x="993" d="M-109 -313l945 1806h276l-944 -1806h-277z" />
<glyph unicode="0" d="M49 596q0 352 180.5 576.5t462.5 224.5q252 0 396.5 -166t144.5 -455q0 -147 -46 -300.5t-126 -270.5q-160 -236 -457 -236q-256 0 -405.5 169t-149.5 458zM397 598q0 -152 54.5 -240t148.5 -88q121 0 202 146.5t81 365.5q0 303 -185 314q-123 6 -212 -140.5t-89 -357.5z " />
<glyph unicode="1" d="M342 1065l37 301h541l-168 -1366h-346l131 1065h-195z" />
<glyph unicode="2" d="M2 0q383 356 596 608q184 221 184 334q0 68 -43 111t-112 43q-102 0 -150 -90q-20 -41 -33 -166h-354q23 223 96 338q68 102 188 160.5t265 58.5q229 0 363.5 -120t134.5 -325q0 -168 -101.5 -306t-376.5 -345h422l-37 -301h-1042z" />
<glyph unicode="3" d="M39 465h356q0 -106 46 -155.5t145 -49.5q86 0 137 46t51 124q0 72 -48 115t-128 43q-8 0 -45 -4l31 258q49 -6 65 -6q70 0 114 41t44 104q0 59 -40 97t-103 38q-131 0 -152 -151h-356q41 199 127 292q133 139 381 140q225 0 355 -106.5t130 -291.5q0 -104 -41 -170.5 t-137 -119.5q84 -47 120.5 -113t36.5 -170q0 -184 -137 -315q-150 -141 -407 -142q-334 0 -473 217q-70 105 -72 279z" />
<glyph unicode="4" d="M23 256l18 274l668 836h413l-102 -838h137l-35 -272h-135l-33 -256h-315l31 256h-647zM377 528h325l27 205q29 215 53 328q-55 -88 -123 -172z" />
<glyph unicode="5" d="M6 117l98 313q190 -162 406 -162q119 0 193.5 60.5t74.5 154.5q0 98 -75.5 150.5t-217.5 52.5q-143 0 -323 -65l241 745h738l-37 -301h-481l-56 -168q72 8 109 8q215 0 336 -108.5t121 -302.5q0 -215 -170 -369q-170 -156 -441 -156q-139 0 -242.5 30t-273.5 118z" />
<glyph unicode="6" d="M63 434q0 119 59.5 233.5t207.5 282.5l366 416h408l-428 -479q59 8 92 8q188 0 306 -119t118 -307q0 -217 -163 -358.5t-415 -141.5q-238 0 -394.5 132t-156.5 333zM406 449q0 -84 61 -141.5t154 -57.5q94 0 155.5 58.5t61.5 148.5t-57.5 144t-151.5 54q-96 0 -159.5 -58 t-63.5 -148z" />
<glyph unicode="7" d="M156 0l417 752q109 195 189 313h-557l37 301h1048l-755 -1366h-379z" />
<glyph unicode="8" d="M78 375q0 180 129 282q57 45 182 82q-176 100 -176 281q0 164 137 270.5t346 106.5q211 0 331 -96.5t120 -264.5q0 -115 -57.5 -182.5t-196.5 -114.5q111 -43 164 -92q102 -96 102 -260q0 -188 -147.5 -303t-388.5 -115q-252 0 -398.5 109t-146.5 297zM432 413.5 q0 -67.5 53.5 -111.5t135.5 -44q78 0 131 46t53 114q0 66 -52.5 108.5t-134 42.5t-134 -44t-52.5 -111.5zM535 1018q0 -57 40.5 -95t102.5 -38q63 0 105 40t42 97q0 63 -37.5 100t-103.5 37q-63 0 -106 -41t-43 -100z" />
<glyph unicode="9" d="M92 905q0 217 164 354.5t420 137.5q242 0 393.5 -130t151.5 -335q0 -217 -209 -453l-424 -479h-408l430 479q-49 -10 -80 -10q-186 0 -312 125t-126 311zM446 905q0 -82 61.5 -138t149.5 -56q94 0 158 60t64 151q0 84 -58.5 139t-148.5 55q-94 0 -160 -60.5t-66 -150.5z " />
<glyph unicode=":" horiz-adv-x="628" d="M72 184q0 84 60.5 144.5t143.5 60.5q90 0 150.5 -61.5t60.5 -151.5q0 -82 -60 -142.5t-144 -60.5q-86 0 -148.5 62.5t-62.5 148.5zM139 737q0 84 60.5 144.5t144.5 60.5q90 0 150.5 -61.5t60.5 -151.5q0 -82 -60.5 -142.5t-144.5 -60.5q-86 0 -148.5 62.5t-62.5 148.5z " />
<glyph unicode=";" horiz-adv-x="628" d="M-72 -305l310 647h313l-373 -647h-250zM176 735q0 86 60.5 146.5t144.5 60.5q90 0 150.5 -61.5t60.5 -151.5q0 -82 -60.5 -142.5t-144.5 -60.5q-86 0 -148.5 62.5t-62.5 146.5z" />
<glyph unicode="&#x3c;" horiz-adv-x="1024" d="M92 532v324l887 492v-387l-477 -269l475 -270l2 -383z" />
<glyph unicode="=" d="M131 387v242h1024v-242h-1024zM131 764v242h1024v-242h-1024z" />
<glyph unicode="&#x3e;" horiz-adv-x="1024" d="M92 39v387l477 268l-475 271l-2 383l887 -494v-324z" />
<glyph unicode="?" horiz-adv-x="1122" d="M158 967q27 195 106 284q129 141 363 142q213 0 340 -114t127 -304q0 -174 -101.5 -290t-273.5 -138l-12 -96h-318l43 350q51 -4 94 -4q115 0 183.5 47t68.5 129q0 63 -40 102t-105 39q-139 0 -154 -147h-321zM287 184q0 88 59.5 145.5t151.5 57.5q88 0 145 -56.5 t57 -146.5t-59 -150.5t-147 -60.5t-147.5 60.5t-59.5 150.5z" />
<glyph unicode="@" horiz-adv-x="1501" d="M59 680q0 307 217.5 517t534.5 210q293 0 493.5 -182.5t200.5 -448.5q0 -201 -116.5 -347t-278.5 -146q-100 0 -156 88q-63 -53 -107 -72.5t-108 -19.5q-141 0 -235 106.5t-94 267.5q0 168 104 279.5t262 111.5q92 0 189 -59l12 43h188l-55 -450q-4 -27 -4 -89 q0 -35 22 -34q76 0 138.5 99t62.5 218q0 201 -147.5 335t-368.5 134q-238 0 -398.5 -161.5t-160.5 -399.5q0 -152 71.5 -280t196.5 -201q129 -74 305 -74q115 0 204 23.5t214 87.5l12 6l66 -166q-137 -70 -246.5 -97.5t-247.5 -27.5q-240 0 -411 98q-166 96 -262.5 264 t-96.5 367zM616 647q0 -78 38 -127t96 -49q76 0 135 67.5t59 155.5q0 68 -45 113t-115 45q-74 0 -121 -57.5t-47 -147.5z" />
<glyph unicode="A" horiz-adv-x="1423" d="M-31 0l676 1366h389l332 -1366h-362l-62 250h-475l-115 -250h-383zM594 522h280l-53 238q-23 96 -37 207q-39 -111 -61 -162z" />
<glyph unicode="B" horiz-adv-x="1226" d="M86 0l168 1366h436q199 0 277 -39q74 -35 114.5 -107.5t40.5 -168.5q0 -121 -61 -215q-49 -74 -162 -125q133 -31 193.5 -102.5t60.5 -196.5q0 -109 -52 -199t-147 -147q-106 -66 -325 -66h-543zM465 272h94q133 0 182 41q57 45 58 129q0 80 -54 111q-35 18 -139 18h-104 zM532 819h50q113 0 163 36t50 116t-52 106q-31 16 -114 17h-64z" />
<glyph unicode="C" horiz-adv-x="1243" d="M102 653q0 332 238 545q217 195 508 195q209 0 414 -113l-41 -340q-150 125 -334 125q-188 0 -309 -111.5t-121 -285.5q0 -164 106.5 -265.5t276.5 -101.5q160 0 313 86l-43 -348q-190 -66 -322 -66q-303 0 -494.5 190.5t-191.5 489.5z" />
<glyph unicode="D" horiz-adv-x="1406" d="M86 0l168 1366h422q309 0 457 -113q106 -82 166.5 -219t60.5 -301q0 -211 -93 -387t-247 -258q-168 -88 -483 -88h-451zM469 301h119q111 0 176 20.5t119 73.5q121 121 121 338q0 172 -84 260q-72 72 -232 72h-125z" />
<glyph unicode="E" horiz-adv-x="989" d="M86 0l168 1366h747l-36 -301h-402l-28 -236h389l-37 -301h-389l-29 -227h418l-37 -301h-764z" />
<glyph unicode="F" horiz-adv-x="970" d="M86 0l168 1366h778l-37 -301h-432l-28 -231h393l-37 -302h-393l-66 -532h-346z" />
<glyph unicode="G" horiz-adv-x="1540" d="M102 647q0 324 211 535t535 211q262 0 438 -148q61 -49 98 -103.5t76 -148.5l-299 -116q-100 223 -319 223q-170 0 -273 -125q-113 -135 -112 -322q0 -166 101 -272.5t259 -106.5q113 0 194 58.5t101 154.5h-315l32 273h656q-2 -213 -66 -377q-74 -190 -243.5 -300 t-393.5 -110q-301 0 -490.5 187.5t-189.5 486.5z" />
<glyph unicode="H" horiz-adv-x="1482" d="M86 0l168 1366h346l-61 -498h505l60 498h346l-168 -1366h-346l72 567h-506l-70 -567h-346z" />
<glyph unicode="I" horiz-adv-x="632" d="M86 0l168 1366h346l-168 -1366h-346z" />
<glyph unicode="J" horiz-adv-x="1003" d="M-14 289l274 143q16 -70 46 -100.5t81 -30.5q63 0 96 49q20 31 33 133l109 883h346l-115 -940q-27 -223 -111 -322q-109 -131 -333 -131q-203 0 -316 111q-65 66 -110 205z" />
<glyph unicode="K" horiz-adv-x="1376" d="M86 0l168 1366h346l-74 -598l451 598h397l-522 -694l467 -672h-416l-293 436q-63 94 -102 180l-76 -616h-346z" />
<glyph unicode="L" horiz-adv-x="966" d="M86 0l168 1366h346l-131 -1065h436l-39 -301h-780z" />
<glyph unicode="M" horiz-adv-x="1923" d="M45 0l432 1366h342l103 -461q37 -168 61 -358q33 98 78 186l321 633h359l43 -1366h-346l-17 612v45q0 96 17 228q-41 -117 -97 -226l-335 -659h-183l-116 528q-37 172 -58 377q-39 -205 -71 -313l-177 -592h-356z" />
<glyph unicode="N" horiz-adv-x="1634" d="M86 0l168 1366h373l389 -659q31 -51 59 -109l53 -106q2 -2 5.5 -9.5l9.5 -19.5l12 -23q0 94 16 236l84 690h347l-168 -1366h-379l-363 612q-98 168 -168 338v-61q0 -135 -14 -258l-78 -631h-346z" />
<glyph unicode="O" horiz-adv-x="1648" d="M106 666q0 319 216.5 524t556.5 205q322 0 518 -186.5t196 -491.5q0 -264 -147 -467q-201 -276 -594 -277q-334 0 -540 192t-206 501zM461 678q0 -170 105.5 -273.5t277.5 -103.5t283.5 107.5t111.5 273.5q0 174 -103.5 279.5t-271.5 105.5q-176 0 -289.5 -110.5 t-113.5 -278.5z" />
<glyph unicode="P" horiz-adv-x="1226" d="M86 0l168 1366h461q143 0 217 -14.5t133 -55.5q76 -51 118 -146t42 -210q0 -225 -133 -362q-70 -72 -169.5 -103t-267.5 -31h-168l-55 -444h-346zM524 745h109q238 0 237 189q0 84 -49 122t-159 38h-97z" />
<glyph unicode="Q" horiz-adv-x="1648" d="M106 666q0 322 217.5 525.5t557.5 203.5q317 0 514.5 -186.5t197.5 -485.5q0 -342 -225 -561l160 -211l-303 -62l-95 127q-131 -43 -282 -43q-330 0 -536 193t-206 500zM461 678q0 -170 105.5 -273.5t277.5 -103.5q25 0 80 6l-201 260l303 51l127 -182q86 106 86 250 q0 170 -103.5 275.5t-271.5 105.5q-176 0 -289.5 -110.5t-113.5 -278.5z" />
<glyph unicode="R" horiz-adv-x="1286" d="M86 0l168 1366h444q213 0 324 -72q160 -102 160 -352q0 -186 -111 -303q-61 -66 -180 -109l336 -530h-402l-327 543l-66 -543h-346zM522 741h62q244 0 243 193q0 88 -44 124t-152 36h-66z" />
<glyph unicode="S" horiz-adv-x="1083" d="M33 123l155 262q166 -111 289 -111q82 0 132 38t50 100q0 45 -31.5 76.5t-127.5 78.5q-182 92 -249 175t-67 221q0 186 142.5 308t359.5 122q201 0 397 -125l-151 -262q-133 100 -240 100q-70 0 -111.5 -33t-41.5 -86q0 -49 34.5 -82t139.5 -82q170 -78 236.5 -163 t66.5 -220q0 -199 -144 -331q-141 -135 -378 -136q-123 0 -222.5 33t-238.5 117z" />
<glyph unicode="T" horiz-adv-x="952" d="M88 1065l37 301h926l-37 -301h-287l-131 -1065h-346l131 1065h-293z" />
<glyph unicode="U" horiz-adv-x="1468" d="M147 438q0 82 15 191l92 737h344l-90 -737q-8 -82 -8 -115q0 -215 227 -215q129 0 195 70q55 61 73 219l95 778h346l-97 -791q-23 -193 -56.5 -289t-98.5 -161q-154 -154 -467 -154q-256 0 -398 107q-80 59 -126 156.5t-46 203.5z" />
<glyph unicode="V" horiz-adv-x="1382" d="M111 1366h368l158 -623q29 -115 41 -249q31 92 78 186l350 686h387l-733 -1366h-291z" />
<glyph unicode="W" horiz-adv-x="2060" d="M111 1366h348l86 -512q35 -199 49 -448q27 94 47 157l6 17.5t12.5 31t14.5 35.5l291 719h325l103 -586q18 -115 37 -374q33 115 108 305l260 655h373l-588 -1366h-389l-92 545q-29 164 -31 354q-51 -172 -113 -326l-233 -573h-371z" />
<glyph unicode="X" horiz-adv-x="1406" d="M-59 0l596 719l-392 647h402l90 -160q74 -131 125 -252q94 145 137 199l168 213h418l-541 -666l424 -700h-399l-123 205q-76 129 -127 258q-59 -104 -135 -197l-213 -266h-430z" />
<glyph unicode="Y" horiz-adv-x="1275" d="M96 1366h383l94 -219q61 -143 89 -229q27 49 67 108l234 340h421l-596 -768l-73 -598h-346l75 608z" />
<glyph unicode="Z" horiz-adv-x="1292" d="M4 0l741 1065h-538l37 301h1097l-731 -1065h613l-37 -301h-1182z" />
<glyph unicode="[" horiz-adv-x="776" d="M68 -313l221 1806h530l-22 -190h-246l-176 -1426h246l-23 -190h-530z" />
<glyph unicode="\" horiz-adv-x="993" d="M135 1493h277l499 -1806h-276z" />
<glyph unicode="]" horiz-adv-x="776" d="M-14 -313l22 190h246l176 1426h-246l23 190h530l-221 -1806h-530z" />
<glyph unicode="^" horiz-adv-x="1024" d="M37 690l285 686h428l286 -686h-338l-161 424l-162 -424h-338z" />
<glyph unicode="_" horiz-adv-x="1024" d="M25 -100h1024v-226h-1024v226z" />
<glyph unicode="`" horiz-adv-x="1024" d="M295 1352l219 127l197 -320l-172 -94z" />
<glyph unicode="a" horiz-adv-x="1253" d="M68 408q0 231 137 383.5t346 152.5q94 0 157.5 -28.5t137.5 -104.5l2 104h338l-113 -915h-338l25 100q-78 -70 -147.5 -98.5t-163.5 -28.5q-174 0 -277.5 118t-103.5 317zM412 432q0 -88 50 -140t134 -52q90 0 151.5 69.5t61.5 173.5q0 90 -48 142.5t-132 52.5 q-92 0 -154.5 -71t-62.5 -175z" />
<glyph unicode="b" horiz-adv-x="1263" d="M66 0l184 1493h338l-86 -690q84 76 154.5 107.5t158.5 31.5q168 0 273.5 -122t105.5 -316q0 -233 -132 -383t-339 -150q-104 0 -173 33t-142 119l-5 -123h-337zM453 430q0 -88 50 -140t134 -52q90 0 151.5 69.5t61.5 173.5q0 90 -48 142.5t-132 52.5q-92 0 -154.5 -71 t-62.5 -175z" />
<glyph unicode="c" horiz-adv-x="866" d="M72 430q0 221 143 366.5t363 145.5q147 0 276 -63l-35 -285q-88 82 -186 82q-94 0 -155.5 -68.5t-61.5 -171.5q0 -90 51 -143t137 -53q82 0 180 69l-34 -286q-145 -49 -240 -50q-193 0 -315.5 128t-122.5 329z" />
<glyph unicode="d" horiz-adv-x="1253" d="M66 389q0 233 134 393t332 160q94 0 163 -32.5t139 -112.5l84 696h337l-184 -1493h-336l25 109q-150 -135 -322 -136q-168 0 -270 115t-102 301zM410 430q0 -86 50 -138t134 -52q90 0 151.5 69.5t61.5 173.5q0 90 -48 141.5t-132 51.5q-92 0 -154.5 -71t-62.5 -175z" />
<glyph unicode="e" horiz-adv-x="1148" d="M70 420q0 221 143 371q145 152 397 151q219 0 344 -125t125 -344q0 -10 -4 -84h-684q0 -92 33 -131q43 -47 127 -47q111 0 129 94h369q-51 -133 -127 -207q-137 -125 -377 -125q-217 0 -336 107q-66 57 -102.5 148.5t-36.5 191.5zM414 580h319q-10 141 -149 141 t-170 -141z" />
<glyph unicode="f" horiz-adv-x="735" d="M43 655l33 260h141l27 220q29 240 190 331q92 51 205 52q104 0 213 -43l-35 -289q-55 45 -112 45q-115 0 -132 -154l-18 -162h229l-32 -260h-230l-82 -655h-336l80 655h-141z" />
<glyph unicode="g" horiz-adv-x="1251" d="M23 -129h321q18 -125 172 -125q92 0 148 51q47 43 61 158l18 141q-74 -70 -132 -96.5t-138 -26.5q-184 0 -297 125q-106 117 -106 330q0 225 129 369.5t331 144.5q98 0 170 -36t142 -122l6 131h336l-103 -847q-35 -287 -110 -398q-125 -190 -459 -190q-244 0 -369 112 q-55 47 -80.5 108.5t-39.5 170.5zM414 442q0 -92 50 -147t134 -55q88 0 142.5 66.5t54.5 172.5q0 92 -48.5 144.5t-132.5 52.5q-88 0 -144 -66t-56 -168z" />
<glyph unicode="h" horiz-adv-x="1214" d="M66 0l184 1493h338l-82 -659q154 109 301 108q143 0 220 -83t77 -238q0 -43 -12 -154l-58 -467h-338l45 367q14 127 15 149q0 145 -123 146q-96 0 -137 -74q-27 -45 -39 -154l-54 -434h-337z" />
<glyph unicode="i" horiz-adv-x="583" d="M66 0l112 915h338l-113 -915h-337zM190 1262q0 82 60.5 140t144.5 58q82 0 139.5 -58.5t57.5 -139.5q0 -84 -58.5 -143.5t-140.5 -59.5q-84 0 -143.5 59.5t-59.5 143.5z" />
<glyph unicode="j" horiz-adv-x="583" d="M4 -506l174 1421h338l-174 -1421h-338zM182 1262q0 82 60.5 140t144.5 58q82 0 139.5 -58.5t57.5 -139.5q0 -84 -58.5 -143.5t-140.5 -59.5q-84 0 -143.5 59.5t-59.5 143.5z" />
<glyph unicode="k" horiz-adv-x="1239" d="M66 0l184 1493h338l-113 -905l293 327h426l-399 -417l428 -498h-412l-135 154q-109 121 -219 276l-54 -430h-337z" />
<glyph unicode="l" horiz-adv-x="583" d="M66 0l184 1493h338l-185 -1493h-337z" />
<glyph unicode="m" horiz-adv-x="1804" d="M66 0l112 915h338l-27 -120q76 82 147 114.5t169 32.5q102 0 161.5 -35t104.5 -123q84 86 163 122t177 36q131 0 210 -72.5t79 -193.5q0 -72 -17 -195l-61 -481h-336l55 446q8 78 9 97q0 119 -113 119q-96 0 -141 -82q-20 -39 -33 -144l-53 -436h-338l59 477q6 51 6 78 q0 49 -29.5 78t-80.5 29q-143 0 -170 -226l-54 -436h-337z" />
<glyph unicode="n" horiz-adv-x="1214" d="M66 0l112 915h338l-29 -118q94 82 166 113.5t166 31.5q139 0 214 -72.5t75 -205.5q0 -66 -10 -148l-64 -516h-338l52 403q8 74 8 113q0 70 -32 108t-91 38q-82 0 -125 -60q-37 -51 -53 -188l-52 -414h-337z" />
<glyph unicode="o" horiz-adv-x="1234" d="M72 455q0 213 156.5 350t400 137t387 -128t143.5 -347q0 -188 -129 -330q-150 -164 -414 -164q-244 0 -394 133.5t-150 348.5zM416 430q0 -86 50 -138t134 -52q92 0 153.5 69.5t61.5 173.5q0 90 -48 141.5t-132 51.5q-94 0 -156.5 -71t-62.5 -175z" />
<glyph unicode="p" horiz-adv-x="1263" d="M4 -506l174 1421h338l-24 -114q90 78 160.5 109.5t158.5 31.5q174 0 275.5 -118.5t101.5 -321.5q0 -238 -120 -383.5t-316 -145.5q-201 0 -330 183l-80 -662h-338zM446 430q0 -86 50.5 -138t134.5 -52q90 0 151.5 69.5t61.5 173.5q0 90 -48 141.5t-132 51.5 q-92 0 -155 -71t-63 -175z" />
<glyph unicode="q" horiz-adv-x="1255" d="M72 418q0 236 128 380t337 144q96 0 165.5 -27.5t147.5 -99.5v100h338l-174 -1421h-338l74 590q-76 -63 -137.5 -88t-143.5 -25q-180 0 -288.5 123t-108.5 324zM416 430q0 -88 49 -140t131 -52q90 0 150.5 69.5t60.5 173.5q0 90 -47 142.5t-129 52.5q-92 0 -153.5 -71 t-61.5 -175z" />
<glyph unicode="r" horiz-adv-x="833" d="M66 0l112 915h338l-27 -124q78 72 143.5 98t162.5 26q37 0 65 -2l-37 -313q-76 41 -153 41q-117 0 -170 -78q-33 -49 -49 -174l-48 -389h-337z" />
<glyph unicode="s" horiz-adv-x="962" d="M39 113l123 223q96 -63 156.5 -86t130.5 -23q123 0 122 64q0 18 -12 31q-14 12 -149 45q-127 31 -185.5 94t-58.5 172q0 141 107.5 227t283.5 86q162 0 342 -94l-82 -231q-127 80 -223 79q-115 0 -115 -55q0 -25 20.5 -34t143.5 -42q125 -35 183.5 -95t58.5 -161 q0 -156 -116 -248t-310 -92q-209 1 -420 140z" />
<glyph unicode="t" horiz-adv-x="681" d="M43 655l33 260h143l37 293h336l-35 -293h180l-32 -260h-181l-80 -655h-338l82 655h-145z" />
<glyph unicode="u" horiz-adv-x="1222" d="M113 332q0 63 8 127l57 456h338l-55 -436q-8 -57 -8 -106q0 -119 137 -119q78 0 116.5 42t51.5 142l59 477h338l-59 -483q-31 -256 -138 -348q-127 -111 -389 -111q-217 0 -336.5 94.5t-119.5 264.5z" />
<glyph unicode="v" horiz-adv-x="1193" d="M45 915h352l103 -278q31 -84 67 -227q76 152 133 237l174 268h375l-616 -915h-230z" />
<glyph unicode="w" horiz-adv-x="1705" d="M45 915h342l92 -284q33 -104 53 -211q35 96 91 196l159 299h228l86 -276q37 -117 51 -199q39 96 74 160l180 315h360l-528 -915h-242l-90 328q-29 109 -39 204q-39 -104 -86 -188l-186 -344h-246z" />
<glyph unicode="x" horiz-adv-x="1280" d="M-43 0l471 483l-332 432h422l68 -106q45 -68 73 -129q43 70 97 129l94 106h440l-436 -440l367 -475h-418l-88 123q-47 68 -90 141q-53 -70 -129 -151l-107 -113h-432z" />
<glyph unicode="y" horiz-adv-x="1230" d="M25 -506l354 578l-324 843h375l98 -247q47 -117 76 -262q41 94 119 221l178 288h385l-883 -1421h-378z" />
<glyph unicode="z" horiz-adv-x="1144" d="M-16 0l565 655h-399l43 260h966l-559 -655h442l-43 -260h-1015z" />
<glyph unicode="{" horiz-adv-x="784" d="M168 489l27 224q66 12 95 46t38 109l43 342q20 162 89.5 229.5t219.5 67.5q6 0 82 -4q37 0 67 -2l-28 -231q-14 2 -35 2q-86 0 -108.5 -22.5t-34.5 -121.5l-35 -278q-14 -109 -46 -161t-108 -97q53 -41 73.5 -80t20.5 -109q0 -23 -4 -71l-35 -279q-6 -51 -6 -76 q0 -41 28 -53t124 -12l-29 -231q-127 -4 -133 -5h-22q-127 0 -182.5 51.5t-55.5 166.5q0 33 4 77l43 342q4 29 4 60q0 98 -96 116z" />
<glyph unicode="|" horiz-adv-x="1024" d="M342 -342v1708h391v-1708h-391z" />
<glyph unicode="}" horiz-adv-x="784" d="M-14 -319l28 231h37q84 0 108.5 23.5t35.5 117.5l32 281q12 104 45 158.5t111 99.5q-55 39 -75.5 79t-20.5 109q0 20 4 70l35 278q6 53 6 78q0 37 -24.5 51.5t-88.5 14.5q-23 0 -39 -2l29 231q35 2 67 2l89 4q127 0 183 -51t56 -166q0 -25 -6 -80l-41 -342q-4 -29 -4 -59 q0 -96 94 -117l-26 -221q-66 -14 -95.5 -47t-38.5 -111l-41 -342q-18 -160 -89.5 -227.5t-219.5 -67.5q-8 0 -84 2z" />
<glyph unicode="~" horiz-adv-x="1366" d="M209 1243q12 29 16 35l25 57q82 193 268 193q68 0 213 -55q131 -49 178 -50q49 0 80 22.5t68 84.5l149 -86q-47 -96 -77.5 -140t-73.5 -75q-82 -57 -174 -58q-53 0 -209 58q-127 47 -168 47q-53 0 -92 -35q-20 -18 -58 -92z" />
<glyph unicode="&#xa1;" horiz-adv-x="688" d="M76 -313l112 921h347l-115 -921h-344zM186 870.5q0 90.5 59.5 150.5t147.5 60q90 0 149.5 -60t59.5 -153q0 -88 -60.5 -145t-152.5 -57q-90 0 -146.5 57t-56.5 147.5z" />
<glyph unicode="&#xa2;" d="M229 666q0 199 111 337t299 175l29 241h209l-31 -239q98 -16 178 -58l-35 -288q-92 72 -188 71.5t-158.5 -66t-62.5 -165.5q0 -84 52 -136.5t134 -52.5q92 0 188 60l-36 -289q-106 -43 -205 -49l-29 -234h-207l31 260q-133 55 -206 169t-73 264z" />
<glyph unicode="&#xa3;" d="M25 0q45 170 104 248t166 102q33 90 33 160q0 18 -6 63h-216l27 207h164q-25 106 -25 187q0 186 109 293q141 137 387 137q281 0 385 -180q53 -92 53 -234v-18h-319q-8 174 -129 174q-156 0 -156 -211q0 -55 14 -148h377l-24 -207h-332q-6 -133 -59 -247q31 -10 36 -11 l50 -20q86 -37 133 -37q63 0 82 86h251q-14 -152 -61 -231q-82 -143 -270 -144q-63 0 -107.5 12.5t-195.5 71.5q-78 31 -129 31q-35 0 -55.5 -18.5t-37.5 -65.5h-249z" />
<glyph unicode="&#xa4;" horiz-adv-x="1366" d="M39 1268l145 145l213 -213q137 90 287 90q145 0 281 -88l211 209l143 -143l-209 -209q92 -150 92 -287q0 -141 -88 -278l211 -211l-143 -146l-211 211q-133 -92 -291 -92q-139 0 -285 90l-211 -209l-143 144l211 211q-90 129 -90 282q0 147 90 281zM403 772 q0 -115 82 -196.5t197 -81.5t197 81.5t82 198.5q0 115 -81 197t-194 82q-119 0 -201 -81t-82 -200z" />
<glyph unicode="&#xa5;" d="M115 334l24 201h285l8 73l-26 66h-250l24 200h146l-197 492h344l172 -467l295 467h379l-348 -492h151l-24 -200h-271l-55 -76l-8 -63h315l-24 -201h-316l-41 -334h-342l43 334h-284z" />
<glyph unicode="&#xa6;" horiz-adv-x="1024" d="M342 313h391v-655h-391v655zM342 625v741h391v-741h-391z" />
<glyph unicode="&#xa7;" d="M113 152h262v-29q0 -96 33 -143q51 -70 147 -70q72 0 115 33.5t43 91.5q0 41 -32 69.5t-128 71.5q-180 84 -260 146q-121 98 -121 270q0 115 52 190.5t167 128.5q-61 51 -84.5 104.5t-23.5 135.5q0 168 111.5 265t303.5 97q281 0 400 -192q55 -92 63 -289h-278 q-4 123 -27 166q-37 74 -141 74q-63 0 -102.5 -33t-39.5 -86q0 -41 39 -73.5t168 -100.5q158 -82 215 -131q104 -88 105 -246q0 -215 -203 -317q96 -111 96 -240q0 -170 -121.5 -275.5t-316.5 -105.5q-147 0 -254.5 65.5t-153.5 184.5q-34 88 -34 238zM475 592 q0 -139 160 -139q76 0 120 37.5t44 103t-45 102.5t-123 37q-70 0 -113 -39t-43 -102z" />
<glyph unicode="&#xa8;" horiz-adv-x="1024" d="M250 1266q0 66 46 110.5t111.5 44.5t111.5 -47t46 -112.5t-45 -110.5t-110.5 -45t-112.5 46t-47 114zM647 1266q0 63 47 109t113 46q63 0 109.5 -48t46.5 -113q0 -61 -46.5 -107.5t-107.5 -46.5q-66 0 -114 47t-48 113z" />
<glyph unicode="&#xa9;" horiz-adv-x="1501" d="M68 682q0 299 208.5 507t511.5 208q287 0 493 -211t206 -504q0 -295 -208 -504t-501 -209t-501.5 210t-208.5 503zM209 682q0 -242 167 -414t402 -172q233 0 399 172t166 414q0 240 -164.5 413t-392.5 173q-242 0 -409.5 -170t-167.5 -416zM365 668q0 184 137 312 t336 128q131 0 270 -70l-29 -231q-109 84 -219 84q-109 0 -178.5 -59.5t-69.5 -153.5q0 -90 62.5 -146.5t165.5 -56.5q96 0 207 60l-29 -236q-129 -41 -213 -41q-193 0 -316.5 115t-123.5 295z" />
<glyph unicode="&#xaa;" horiz-adv-x="751" d="M59 580l15 122h671l-14 -122h-672zM106 1059q0 137 88.5 230t221.5 93q109 0 172 -65l2 49h237l-69 -557h-238l10 43q-63 -59 -178 -59q-109 0 -177.5 73.5t-68.5 192.5zM348 1075q0 -45 27.5 -72.5t75.5 -27.5q51 0 83.5 36t32.5 89q0 47 -27.5 73.5t-72.5 26.5 q-51 0 -85 -36t-34 -89z" />
<glyph unicode="&#xab;" horiz-adv-x="1058" d="M78 539l377 364l127 -131l-256 -250l215 -329l-166 -113zM479 539l377 364l127 -131l-256 -250l215 -329l-166 -113z" />
<glyph unicode="&#xac;" horiz-adv-x="1024" d="M92 270v340h887v-610h-379v270h-508z" />
<glyph unicode="&#xad;" horiz-adv-x="520" d="M-16 328l34 286h521l-35 -286h-520z" />
<glyph unicode="&#xae;" horiz-adv-x="1501" d="M68 682q0 299 208.5 507t511.5 208q287 0 493 -211t206 -504q0 -295 -208 -504t-501 -209t-501.5 210t-208.5 503zM209 682q0 -242 167 -414t402 -172q233 0 399 172t166 414q0 240 -164.5 413t-392.5 173q-242 0 -409.5 -170t-167.5 -416zM408 272l100 820h289 q313 0 313 -258q0 -182 -170 -246l217 -316h-285l-188 289l-35 -289h-241zM705 731h24q133 0 133 94q0 47 -23.5 64.5t-84.5 17.5h-27z" />
<glyph unicode="&#xaf;" horiz-adv-x="1024" d="M238 1153l24 195h703l-25 -195h-702z" />
<glyph unicode="&#xb0;" d="M422 1116q0 111 81 190.5t191 79.5q113 0 194 -79.5t81 -192.5t-80 -193.5t-193 -80.5q-115 0 -194.5 80.5t-79.5 195.5zM563 1116q0 -55 39 -94t92.5 -39t92 39t38.5 92t-38.5 92t-92 39t-92.5 -38t-39 -91z" />
<glyph unicode="&#xb1;" d="M131 94h1024v-268h-1024v268zM131 561v268h375v365h274v-365h375v-268h-375v-368h-274v368h-375z" />
<glyph unicode="&#xb2;" horiz-adv-x="819" d="M66 547q487 434 487 563q0 39 -26.5 63.5t-67.5 24.5q-53 0 -77 -34t-30 -120h-227q12 139 57 207q90 133 285 133q143 0 228 -72.5t85 -197.5q0 -98 -61.5 -180t-222.5 -201h254l-25 -186h-659z" />
<glyph unicode="&#xb3;" horiz-adv-x="819" d="M94 829h230q0 -66 27.5 -94t88.5 -28q51 0 81 26.5t30 69.5q0 41 -29.5 66.5t-77.5 25.5q-18 0 -32 -2l20 162q8 0 18.5 -1t15.5 -2t9 -1q41 0 67.5 23.5t26.5 58t-23.5 56t-62.5 21.5q-78 0 -90 -90h-229q31 141 104.5 202.5t212.5 61.5q143 0 225 -64.5t82 -174.5 q0 -117 -104 -172q94 -53 94 -172q0 -121 -95 -198t-245 -77q-164 0 -253 78t-91 225z" />
<glyph unicode="&#xb4;" horiz-adv-x="1024" d="M485 1198l285 281l166 -183l-320 -231z" />
<glyph unicode="&#xb5;" horiz-adv-x="1222" d="M4 -506l174 1421h338l-53 -436q-10 -72 -10 -106q0 -119 137 -119q80 0 117.5 42t50.5 142l59 477h338l-59 -483q-31 -258 -135 -348q-59 -51 -161 -82t-210 -31q-125 0 -230 49l-18 -526h-338z" />
<glyph unicode="&#xb6;" d="M133 997q0 188 119 278.5t366 90.5h658l-25 -203h-151l-166 -1351h-221l166 1351h-144l-166 -1351h-223l105 845q-152 -2 -235 88t-83 252z" />
<glyph unicode="&#xb7;" horiz-adv-x="618" d="M102 471q0 86 60.5 146.5t144.5 60.5q90 0 150.5 -61.5t60.5 -151.5q0 -82 -60.5 -142.5t-144.5 -60.5q-86 0 -148.5 62.5t-62.5 146.5z" />
<glyph unicode="&#xb8;" horiz-adv-x="1024" d="M229 -358l224 262l176 -150l-262 -233z" />
<glyph unicode="&#xb9;" horiz-adv-x="819" d="M279 1180l22 186h344l-100 -819h-223l77 633h-120z" />
<glyph unicode="&#xba;" horiz-adv-x="751" d="M59 580l15 122h671l-14 -122h-672zM102 1087q0 129 100.5 212t256.5 83q158 0 251 -78.5t93 -211.5q0 -113 -82 -199q-98 -100 -264 -100q-158 0 -256.5 81.5t-98.5 212.5zM344 1075q0 -47 27.5 -73.5t74.5 -26.5q49 0 82 36t33 89q0 47 -26.5 73.5t-73.5 26.5 q-51 0 -84 -36t-33 -89z" />
<glyph unicode="&#xbb;" horiz-adv-x="1058" d="M84 238l256 249l-215 332l166 113l297 -461l-377 -365zM485 238l258 249l-217 332l166 113l297 -461l-377 -365z" />
<glyph unicode="&#xbc;" horiz-adv-x="2007" d="M291 1180l22 186h344l-100 -819h-223l78 633h-121zM543 0l784 1366h189l-785 -1366h-188zM1190 152l10 167l414 500h262l-59 -497h84l-21 -170h-86l-18 -152h-205l18 152h-399zM1421 322h189l16 116q16 117 29 178l-66 -88z" />
<glyph unicode="&#xbd;" horiz-adv-x="2007" d="M291 1180l22 186h344l-100 -819h-223l78 633h-121zM543 0l784 1366h189l-785 -1366h-188zM1171 0q487 434 488 565q0 39 -26.5 63.5t-67.5 24.5q-53 0 -77 -33.5t-30 -119.5h-227q12 139 57 207q90 133 285 133q143 0 228 -73t85 -196q0 -102 -59.5 -182t-224.5 -203h253 l-24 -186h-660z" />
<glyph unicode="&#xbe;" horiz-adv-x="2007" d="M106 829h230q0 -66 27.5 -94t89.5 -28q51 0 80.5 26.5t29.5 69.5q0 41 -29.5 66.5t-76.5 25.5q-18 0 -33 -2l20 162q8 0 18.5 -1t15.5 -2t9 -1q41 0 68 23.5t27 58t-23.5 56t-62.5 21.5q-78 0 -90 -90h-230q31 141 104.5 202.5t213.5 61.5q143 0 225 -64.5t82 -174.5 q0 -117 -105 -172q94 -53 95 -172q0 -121 -95.5 -198t-244.5 -77q-164 0 -253.5 78t-91.5 225zM543 0l784 1366h189l-785 -1366h-188zM1190 152l10 167l414 500h264l-61 -497h84l-21 -170h-84l-20 -152h-205l20 152h-401zM1421 322h189l16 116q16 117 29 178l-66 -88z" />
<glyph unicode="&#xbf;" horiz-adv-x="1122" d="M45 76q0 174 101.5 289.5t273.5 138.5l12 96h318l-43 -350q-51 4 -97 4q-115 0 -182.5 -47t-67.5 -129q0 -63 40 -102t106 -39q139 0 153 147h322q-14 -111 -37.5 -172.5t-71.5 -112.5q-127 -141 -360 -141q-213 0 -340 114t-127 304zM434 868q0 90 59.5 150.5 t147.5 60.5t147.5 -60.5t59.5 -150.5q0 -88 -59.5 -145t-151.5 -57q-88 0 -145.5 56t-57.5 146z" />
<glyph unicode="&#xc0;" horiz-adv-x="1423" d="M-31 0l676 1366h389l332 -1366h-362l-62 250h-475l-115 -250h-383zM565 1767l232 121l204 -311l-180 -88zM594 522h280l-53 238q-23 96 -37 207q-39 -111 -61 -162z" />
<glyph unicode="&#xc1;" horiz-adv-x="1423" d="M-31 0l676 1366h389l332 -1366h-362l-62 250h-475l-115 -250h-383zM594 522h280l-53 238q-23 96 -37 207q-39 -111 -61 -162zM750 1614l305 274l174 -176l-348 -223z" />
<glyph unicode="&#xc2;" horiz-adv-x="1423" d="M-31 0l676 1366h389l332 -1366h-362l-62 250h-475l-115 -250h-383zM479 1667l410 213l332 -221l-138 -178l-213 143l-278 -143zM594 522h280l-53 238q-23 96 -37 207q-39 -111 -61 -162z" />
<glyph unicode="&#xc3;" horiz-adv-x="1423" d="M-31 0l676 1366h389l332 -1366h-362l-62 250h-475l-115 -250h-383zM494 1518q20 131 65 198q74 109 186 109q55 0 144 -49q74 -43 102 -43q63 0 76 96h199q-20 -145 -68 -211q-33 -47 -83 -76t-99 -29q-41 0 -76 13.5t-131 64.5q-27 14 -51 15q-47 0 -66 -88h-198z M594 522h280l-53 238q-23 96 -37 207q-39 -111 -61 -162z" />
<glyph unicode="&#xc4;" horiz-adv-x="1423" d="M-31 0l676 1366h389l332 -1366h-362l-62 250h-475l-115 -250h-383zM508 1675q0 68 48 116t117.5 48t117 -48t47.5 -120q0 -66 -48.5 -114t-115.5 -48q-70 0 -118 48t-48 118zM594 522h280l-53 238q-23 96 -37 207q-39 -111 -61 -162zM922 1675.5q0 67.5 48 115.5t117 48 q68 0 116 -49t48 -119q0 -66 -48 -114t-113 -48q-70 0 -119 49.5t-49 117z" />
<glyph unicode="&#xc5;" horiz-adv-x="1423" d="M-31 0l676 1366h389l332 -1366h-362l-62 250h-475l-115 -250h-383zM594 522h280l-53 238q-23 96 -37 207q-39 -111 -61 -162zM596 1673q0 94 77 149.5t204 55.5t200.5 -56.5t73.5 -152.5t-73.5 -152.5t-200.5 -56.5q-133 0 -207 56.5t-74 156.5zM768 1671 q0 -37 28.5 -58.5t77.5 -21.5q47 0 76 21.5t29 56.5q0 37 -27.5 58.5t-77.5 21.5q-47 0 -76.5 -21.5t-29.5 -56.5z" />
<glyph unicode="&#xc6;" horiz-adv-x="1890" d="M-31 0l666 1366h856l76 -301h-434l63 -231h416l76 -302h-414l61 -231h424l74 -301h-764l-59 246h-559l-117 -246h-365zM578 518h370l-88 365q-29 119 -37 190q-51 -137 -86 -209z" />
<glyph unicode="&#xc7;" horiz-adv-x="1243" d="M102 653q0 332 238 545q217 195 508 195q209 0 414 -113l-41 -340q-150 125 -334 125q-188 0 -309 -111.5t-121 -285.5q0 -164 106.5 -265.5t276.5 -101.5q160 0 313 86l-43 -348q-190 -66 -322 -66q-303 0 -494.5 190.5t-191.5 489.5zM432 -373l238 277l176 -150 l-277 -248z" />
<glyph unicode="&#xc8;" horiz-adv-x="989" d="M86 0l168 1366h747l-36 -301h-402l-28 -236h389l-37 -301h-389l-29 -227h418l-37 -301h-764zM373 1767l231 121l205 -311l-180 -88z" />
<glyph unicode="&#xc9;" horiz-adv-x="989" d="M86 0l168 1366h747l-36 -301h-402l-28 -236h389l-37 -301h-389l-29 -227h418l-37 -301h-764zM537 1614l305 274l174 -176l-348 -223z" />
<glyph unicode="&#xca;" horiz-adv-x="989" d="M86 0l168 1366h747l-36 -301h-402l-28 -236h389l-37 -301h-389l-29 -227h418l-37 -301h-764zM291 1667l409 213l332 -221l-137 -178l-213 143l-279 -143z" />
<glyph unicode="&#xcb;" horiz-adv-x="989" d="M86 0l168 1366h747l-36 -301h-402l-28 -236h389l-37 -301h-389l-29 -227h418l-37 -301h-764zM317 1675q0 68 48.5 116t118 48t116.5 -48t47 -120q0 -66 -48 -114t-116 -48q-70 0 -118 48t-48 118zM731 1675.5q0 67.5 48 115.5t118 48q68 0 116 -49t48 -119 q0 -66 -48 -114t-114 -48q-70 0 -119 49.5t-49 117z" />
<glyph unicode="&#xcc;" horiz-adv-x="632" d="M86 0l168 1366h346l-168 -1366h-346zM160 1767l231 121l205 -311l-180 -88z" />
<glyph unicode="&#xcd;" horiz-adv-x="632" d="M86 0l168 1366h346l-168 -1366h-346zM332 1614l305 274l174 -176l-348 -223z" />
<glyph unicode="&#xce;" horiz-adv-x="632" d="M72 1667l409 213l332 -221l-137 -178l-213 143l-279 -143zM86 0l168 1366h346l-168 -1366h-346z" />
<glyph unicode="&#xcf;" horiz-adv-x="632" d="M86 0l168 1366h346l-168 -1366h-346zM104 1675q0 68 48.5 116t118 48t116.5 -48t47 -120q0 -66 -48 -114t-116 -48q-70 0 -118 48t-48 118zM502 1675.5q0 67.5 48 115.5t118 48q68 0 115.5 -49t47.5 -119q0 -66 -48 -114t-113 -48q-70 0 -119 49.5t-49 117z" />
<glyph unicode="&#xd0;" horiz-adv-x="1406" d="M43 602l29 232h116l66 532h422q307 0 454 -113q106 -84 167 -221t61 -299q0 -211 -93.5 -387t-246.5 -258q-164 -88 -481 -88h-451l74 602h-117zM467 301h119q111 0 176 20.5t119 73.5q121 121 120 338q0 172 -83 260q-72 72 -230 72h-127l-29 -231h267l-27 -232h-266z " />
<glyph unicode="&#xd1;" horiz-adv-x="1634" d="M86 0l168 1366h373l389 -659q31 -51 59 -109l53 -106q2 -2 5.5 -9.5l9.5 -19.5l12 -23q0 94 16 236l84 690h347l-168 -1366h-379l-363 612q-98 168 -168 338v-61q0 -135 -14 -258l-78 -631h-346zM618 1518q20 131 66 198q74 109 186 109q55 0 144 -49q74 -43 102 -43 q63 0 76 96h199q-20 -145 -68 -211q-33 -47 -83 -76t-99 -29q-41 0 -76 13.5t-131 64.5q-27 14 -51 15q-47 0 -66 -88h-199z" />
<glyph unicode="&#xd2;" horiz-adv-x="1648" d="M106 666q0 319 216.5 524t556.5 205q322 0 518 -186.5t196 -491.5q0 -264 -147 -467q-201 -276 -594 -277q-334 0 -540 192t-206 501zM461 678q0 -170 105.5 -273.5t277.5 -103.5t283.5 107.5t111.5 273.5q0 174 -103.5 279.5t-271.5 105.5q-176 0 -289.5 -110.5 t-113.5 -278.5zM672 1767l231 121l205 -311l-180 -88z" />
<glyph unicode="&#xd3;" horiz-adv-x="1648" d="M106 666q0 319 216.5 524t556.5 205q322 0 518 -186.5t196 -491.5q0 -264 -147 -467q-201 -276 -594 -277q-334 0 -540 192t-206 501zM461 678q0 -170 105.5 -273.5t277.5 -103.5t283.5 107.5t111.5 273.5q0 174 -103.5 279.5t-271.5 105.5q-176 0 -289.5 -110.5 t-113.5 -278.5zM815 1614l305 274l174 -176l-348 -223z" />
<glyph unicode="&#xd4;" horiz-adv-x="1648" d="M106 666q0 319 216.5 524t556.5 205q322 0 518 -186.5t196 -491.5q0 -264 -147 -467q-201 -276 -594 -277q-334 0 -540 192t-206 501zM461 678q0 -170 105.5 -273.5t277.5 -103.5t283.5 107.5t111.5 273.5q0 174 -103.5 279.5t-271.5 105.5q-176 0 -289.5 -110.5 t-113.5 -278.5zM594 1667l410 213l331 -221l-137 -178l-213 143l-278 -143z" />
<glyph unicode="&#xd5;" horiz-adv-x="1648" d="M106 666q0 319 216.5 524t556.5 205q322 0 518 -186.5t196 -491.5q0 -264 -147 -467q-201 -276 -594 -277q-334 0 -540 192t-206 501zM461 678q0 -170 105.5 -273.5t277.5 -103.5t283.5 107.5t111.5 273.5q0 174 -103.5 279.5t-271.5 105.5q-176 0 -289.5 -110.5 t-113.5 -278.5zM592 1518q20 131 65 198q74 109 187 109q55 0 143 -49q74 -43 103 -43q63 0 75 96h199q-20 -145 -68 -211q-33 -47 -83 -76t-99 -29q-41 0 -75.5 13.5t-131.5 64.5q-27 14 -51 15q-47 0 -65 -88h-199z" />
<glyph unicode="&#xd6;" horiz-adv-x="1648" d="M106 666q0 319 216.5 524t556.5 205q322 0 518 -186.5t196 -491.5q0 -264 -147 -467q-201 -276 -594 -277q-334 0 -540 192t-206 501zM461 678q0 -170 105.5 -273.5t277.5 -103.5t283.5 107.5t111.5 273.5q0 174 -103.5 279.5t-271.5 105.5q-176 0 -289.5 -110.5 t-113.5 -278.5zM604 1675q0 68 48 116t118 48t117 -48t47 -120q0 -66 -48 -114t-116 -48q-70 0 -118 48t-48 118zM1018 1675.5q0 67.5 48 115.5t118 48q68 0 116 -49t48 -119q0 -66 -48.5 -114t-113.5 -48q-70 0 -119 49.5t-49 117z" />
<glyph unicode="&#xd7;" d="M168 991l184 180l287 -286l285 289l194 -195l-284 -287l286 -289l-186 -180l-283 285l-284 -289l-195 195l285 286z" />
<glyph unicode="&#xd8;" horiz-adv-x="1648" d="M20 113l195 168q-111 184 -111 385q0 322 217.5 525.5t559.5 203.5q137 0 241.5 -33t225.5 -111l188 156l141 -156l-184 -153q61 -125 80.5 -199t19.5 -178q0 -268 -147 -471q-201 -276 -594 -277q-150 0 -262.5 34t-229.5 114l-198 -172zM459 668q0 -76 35 -146l569 494 q-78 51 -203 51q-176 0 -288.5 -111.5t-112.5 -287.5zM631 358q92 -57 209 -57q178 0 288.5 107.5t110.5 279.5q0 82 -37 158z" />
<glyph unicode="&#xd9;" horiz-adv-x="1468" d="M147 438q0 82 15 191l92 737h344l-90 -737q-8 -82 -8 -115q0 -215 227 -215q129 0 195 70q55 61 73 219l95 778h346l-97 -791q-23 -193 -56.5 -289t-98.5 -161q-154 -154 -467 -154q-256 0 -398 107q-80 59 -126 156.5t-46 203.5zM594 1767l231 121l205 -311l-180 -88z " />
<glyph unicode="&#xda;" horiz-adv-x="1468" d="M147 438q0 82 15 191l92 737h344l-90 -737q-8 -82 -8 -115q0 -215 227 -215q129 0 195 70q55 61 73 219l95 778h346l-97 -791q-23 -193 -56.5 -289t-98.5 -161q-154 -154 -467 -154q-256 0 -398 107q-80 59 -126 156.5t-46 203.5zM743 1614l306 274l174 -176l-349 -223z " />
<glyph unicode="&#xdb;" horiz-adv-x="1468" d="M147 438q0 82 15 191l92 737h344l-90 -737q-8 -82 -8 -115q0 -215 227 -215q129 0 195 70q55 61 73 219l95 778h346l-97 -791q-23 -193 -56.5 -289t-98.5 -161q-154 -154 -467 -154q-256 0 -398 107q-80 59 -126 156.5t-46 203.5zM489 1667l410 213l332 -221l-137 -178 l-213 143l-279 -143z" />
<glyph unicode="&#xdc;" horiz-adv-x="1468" d="M147 438q0 82 15 191l92 737h344l-90 -737q-8 -82 -8 -115q0 -215 227 -215q129 0 195 70q55 61 73 219l95 778h346l-97 -791q-23 -193 -56.5 -289t-98.5 -161q-154 -154 -467 -154q-256 0 -398 107q-80 59 -126 156.5t-46 203.5zM522 1675q0 68 48 116t118 48t117 -48 t47 -120q0 -66 -48 -114t-116 -48q-70 0 -118 48t-48 118zM936 1675.5q0 67.5 48 115.5t118 48q68 0 116 -49t48 -119q0 -66 -48.5 -114t-113.5 -48q-70 0 -119 49.5t-49 117z" />
<glyph unicode="&#xdd;" horiz-adv-x="1275" d="M96 1366h383l94 -219q61 -143 89 -229q27 49 67 108l234 340h421l-596 -768l-73 -598h-346l75 608zM618 1614l306 274l174 -176l-348 -223z" />
<glyph unicode="&#xde;" horiz-adv-x="1226" d="M86 0l168 1366h346l-25 -192h117q141 0 216 -15.5t132 -54.5q76 -51 118 -146.5t42 -209.5q0 -225 -131 -363q-72 -72 -170 -102.5t-266 -30.5h-170l-31 -252h-346zM500 553h110q236 0 236 186q0 86 -49 124t-158 38h-96z" />
<glyph unicode="&#xdf;" horiz-adv-x="1245" d="M66 0l124 1006q18 143 41 216.5t68 131.5q123 164 375 164q215 0 344 -110t129 -294q0 -131 -78 -229q-55 -70 -164 -109q104 -41 150 -80q109 -96 108 -276q0 -252 -205 -365q-59 -35 -130.5 -45t-239.5 -10h-88l37 291q41 -4 75 -4q98 0 152.5 47t54.5 133 q0 166 -174 166q-6 0 -67 -4l36 305q37 -4 50 -4q74 0 119.5 44t45.5 116q0 66 -39.5 106.5t-103.5 40.5q-70 0 -104.5 -41t-46.5 -137l-132 -1059h-337z" />
<glyph unicode="&#xe0;" horiz-adv-x="1253" d="M68 408q0 231 137 383.5t346 152.5q94 0 157.5 -28.5t137.5 -104.5l2 104h338l-113 -915h-338l25 100q-78 -70 -147.5 -98.5t-163.5 -28.5q-174 0 -277.5 118t-103.5 317zM412 432q0 -88 50 -140t134 -52q90 0 151.5 69.5t61.5 173.5q0 90 -48 142.5t-132 52.5 q-92 0 -154.5 -71t-62.5 -175zM438 1352l219 127l197 -320l-172 -94z" />
<glyph unicode="&#xe1;" horiz-adv-x="1253" d="M68 408q0 231 137 383.5t346 152.5q94 0 157.5 -28.5t137.5 -104.5l2 104h338l-113 -915h-338l25 100q-78 -70 -147.5 -98.5t-163.5 -28.5q-174 0 -277.5 118t-103.5 317zM412 432q0 -88 50 -140t134 -52q90 0 151.5 69.5t61.5 173.5q0 90 -48 142.5t-132 52.5 q-92 0 -154.5 -71t-62.5 -175zM598 1198l285 281l166 -183l-320 -231z" />
<glyph unicode="&#xe2;" horiz-adv-x="1253" d="M68 408q0 231 137 383.5t346 152.5q94 0 157.5 -28.5t137.5 -104.5l2 104h338l-113 -915h-338l25 100q-78 -70 -147.5 -98.5t-163.5 -28.5q-174 0 -277.5 118t-103.5 317zM362 1237l398 242l315 -250l-135 -164l-207 164l-258 -164zM412 432q0 -88 50 -140t134 -52 q90 0 151.5 69.5t61.5 173.5q0 90 -48 142.5t-132 52.5q-92 0 -154.5 -71t-62.5 -175z" />
<glyph unicode="&#xe3;" horiz-adv-x="1253" d="M68 408q0 231 137 383.5t346 152.5q94 0 157.5 -28.5t137.5 -104.5l2 104h338l-113 -915h-338l25 100q-78 -70 -147.5 -98.5t-163.5 -28.5q-174 0 -277.5 118t-103.5 317zM371 1108q23 129 63 197q63 109 168 108q51 0 129 -43q90 -47 119 -47q53 0 72 96h194 q-20 -135 -69 -211q-68 -102 -160 -102q-37 0 -70 12t-131 64q-27 14 -55 14q-47 0 -66 -88h-194zM412 432q0 -88 50 -140t134 -52q90 0 151.5 69.5t61.5 173.5q0 90 -48 142.5t-132 52.5q-92 0 -154.5 -71t-62.5 -175z" />
<glyph unicode="&#xe4;" horiz-adv-x="1253" d="M68 408q0 231 137 383.5t346 152.5q94 0 157.5 -28.5t137.5 -104.5l2 104h338l-113 -915h-338l25 100q-78 -70 -147.5 -98.5t-163.5 -28.5q-174 0 -277.5 118t-103.5 317zM379 1266q0 66 46 110.5t111.5 44.5t111.5 -47t46 -112.5t-46 -110.5t-109 -45q-66 0 -113 46 t-47 114zM412 432q0 -88 50 -140t134 -52q90 0 151.5 69.5t61.5 173.5q0 90 -48 142.5t-132 52.5q-92 0 -154.5 -71t-62.5 -175zM776 1266q0 63 47 109t113 46q63 0 109.5 -48t46.5 -113q0 -61 -46.5 -107.5t-107.5 -46.5q-66 0 -114 47t-48 113z" />
<glyph unicode="&#xe5;" horiz-adv-x="1253" d="M68 408q0 231 137 383.5t346 152.5q94 0 157.5 -28.5t137.5 -104.5l2 104h338l-113 -915h-338l25 100q-78 -70 -147.5 -98.5t-163.5 -28.5q-174 0 -277.5 118t-103.5 317zM412 432q0 -88 50 -140t134 -52q90 0 151.5 69.5t61.5 173.5q0 90 -48 142.5t-132 52.5 q-92 0 -154.5 -71t-62.5 -175zM465 1270q0 94 76.5 149.5t203.5 55.5t201 -56.5t74 -152.5q0 -94 -74 -150.5t-201 -56.5q-133 0 -206.5 55.5t-73.5 155.5zM637 1268q0 -35 28.5 -56.5t77.5 -21.5q47 0 76 20.5t29 57.5q0 35 -27.5 56.5t-77.5 21.5q-47 0 -76.5 -21.5 t-29.5 -56.5z" />
<glyph unicode="&#xe6;" horiz-adv-x="1767" d="M57 272q0 133 98.5 213t262.5 80q168 0 282 -86l5 78q2 14 2 37q0 59 -53.5 93t-149.5 34q-100 0 -279 -66l19 242q201 45 331 45q207 0 334 -115q141 115 334 115q139 0 243.5 -59.5t155.5 -165.5q47 -100 50 -314h-684v-12q0 -82 48 -131t126 -49q117 0 157 82h326 q-27 -82 -58.5 -130t-88.5 -91q-131 -98 -336 -99q-125 0 -205 29t-146 96q-164 -125 -387 -125q-180 0 -283.5 80t-103.5 219zM358 270q0 -43 41 -68.5t111 -25.5q63 0 103 24.5t40 65.5q0 45 -40 69.5t-111 24.5q-63 0 -103.5 -24.5t-40.5 -65.5zM1040 594h346 q-25 135 -165 135q-146 0 -181 -135z" />
<glyph unicode="&#xe7;" horiz-adv-x="866" d="M72 430q0 221 143 366.5t363 145.5q147 0 276 -63l-35 -285q-88 82 -186 82q-94 0 -155.5 -68.5t-61.5 -171.5q0 -90 51 -143t137 -53q82 0 180 69l-34 -286q-145 -49 -240 -50q-193 0 -315.5 128t-122.5 329zM182 -358l224 262l176 -150l-263 -233z" />
<glyph unicode="&#xe8;" horiz-adv-x="1148" d="M70 420q0 221 143 371q145 152 397 151q219 0 344 -125t125 -344q0 -10 -4 -84h-684q0 -92 33 -131q43 -47 127 -47q111 0 129 94h369q-51 -133 -127 -207q-137 -125 -377 -125q-217 0 -336 107q-66 57 -102.5 148.5t-36.5 191.5zM393 1352l219 127l197 -320l-172 -94z M414 580h319q-10 141 -149 141t-170 -141z" />
<glyph unicode="&#xe9;" horiz-adv-x="1148" d="M70 420q0 221 143 371q145 152 397 151q219 0 344 -125t125 -344q0 -10 -4 -84h-684q0 -92 33 -131q43 -47 127 -47q111 0 129 94h369q-51 -133 -127 -207q-137 -125 -377 -125q-217 0 -336 107q-66 57 -102.5 148.5t-36.5 191.5zM414 580h319q-10 141 -149 141 t-170 -141zM532 1198l285 281l166 -183l-319 -231z" />
<glyph unicode="&#xea;" horiz-adv-x="1148" d="M70 420q0 221 143 371q145 152 397 151q219 0 344 -125t125 -344q0 -10 -4 -84h-684q0 -92 33 -131q43 -47 127 -47q111 0 129 94h369q-51 -133 -127 -207q-137 -125 -377 -125q-217 0 -336 107q-66 57 -102.5 148.5t-36.5 191.5zM311 1237l398 242l315 -250l-135 -164 l-207 164l-258 -164zM414 580h319q-10 141 -149 141t-170 -141z" />
<glyph unicode="&#xeb;" horiz-adv-x="1148" d="M70 420q0 221 143 371q145 152 397 151q219 0 344 -125t125 -344q0 -10 -4 -84h-684q0 -92 33 -131q43 -47 127 -47q111 0 129 94h369q-51 -133 -127 -207q-137 -125 -377 -125q-217 0 -336 107q-66 57 -102.5 148.5t-36.5 191.5zM334 1266q0 66 46 110.5t111.5 44.5 t111.5 -47t46 -112.5t-46 -110.5t-109 -45q-66 0 -113 46t-47 114zM414 580h319q-10 141 -149 141t-170 -141zM731 1266q0 63 47 109t113 46q63 0 109.5 -48t46.5 -113q0 -61 -46.5 -107.5t-107.5 -46.5q-66 0 -114 47t-48 113z" />
<glyph unicode="&#xec;" horiz-adv-x="583" d="M66 0l112 915h338l-113 -915h-337zM102 1352l220 127l196 -320l-172 -94z" />
<glyph unicode="&#xed;" horiz-adv-x="583" d="M66 0l112 915h338l-113 -915h-337zM256 1198l285 281l166 -183l-320 -231z" />
<glyph unicode="&#xee;" horiz-adv-x="583" d="M37 1237l377 242l295 -250l-136 -164l-186 164l-237 -164zM66 0l112 915h338l-115 -915h-335z" />
<glyph unicode="&#xef;" horiz-adv-x="583" d="M59 1263.5q0 63.5 44 106.5t107.5 43t106.5 -44t43 -109q0 -59 -44 -103.5t-105 -44.5q-63 0 -107.5 44t-44.5 107.5zM66 0l114 915h336l-113 -915h-337zM430 1264q0 63 44 106t108 43q61 0 105 -45t44 -108q0 -59 -44 -103.5t-103 -44.5q-63 0 -108.5 45.5t-45.5 106.5z " />
<glyph unicode="&#xf0;" horiz-adv-x="1234" d="M72 455q0 205 143 343t354 138q68 0 110 -17.5t97 -68.5q-53 168 -190 289l-236 -117l-127 145l199 99q-88 59 -199 100l119 145q184 -51 301 -127l246 119l139 -137l-201 -104q131 -129 193 -224q145 -229 145 -503q0 -262 -146.5 -412t-400.5 -150q-244 0 -395 133.5 t-151 348.5zM416 430q0 -86 51 -138t135 -52q92 0 153.5 69.5t61.5 173.5q0 90 -49 141.5t-133 51.5q-94 0 -156.5 -71t-62.5 -175z" />
<glyph unicode="&#xf1;" horiz-adv-x="1214" d="M66 0l112 915h338l-29 -118q94 82 166 113.5t166 31.5q139 0 214 -72.5t75 -205.5q0 -66 -10 -148l-64 -516h-338l52 403q8 74 8 113q0 70 -32 108t-91 38q-82 0 -125 -60q-37 -51 -53 -188l-52 -414h-337zM342 1108q23 129 64 197q63 109 167 108q51 0 129 -43 q90 -47 119 -47q53 0 72 96h194q-20 -135 -69 -211q-68 -102 -160 -102q-37 0 -69.5 12t-131.5 64q-27 14 -55 14q-47 0 -65 -88h-195z" />
<glyph unicode="&#xf2;" horiz-adv-x="1234" d="M72 455q0 213 156.5 350t400 137t387 -128t143.5 -347q0 -188 -129 -330q-150 -164 -414 -164q-244 0 -394 133.5t-150 348.5zM416 430q0 -86 50 -138t134 -52q92 0 153.5 69.5t61.5 173.5q0 90 -48 141.5t-132 51.5q-94 0 -156.5 -71t-62.5 -175zM428 1352l219 127 l197 -320l-172 -94z" />
<glyph unicode="&#xf3;" horiz-adv-x="1234" d="M72 455q0 213 156.5 350t400 137t387 -128t143.5 -347q0 -188 -129 -330q-150 -164 -414 -164q-244 0 -394 133.5t-150 348.5zM416 430q0 -86 50 -138t134 -52q92 0 153.5 69.5t61.5 173.5q0 90 -48 141.5t-132 51.5q-94 0 -156.5 -71t-62.5 -175zM567 1198l285 281 l166 -183l-320 -231z" />
<glyph unicode="&#xf4;" horiz-adv-x="1234" d="M72 455q0 213 156.5 350t400 137t387 -128t143.5 -347q0 -188 -129 -330q-150 -164 -414 -164q-244 0 -394 133.5t-150 348.5zM354 1237l398 242l315 -250l-135 -164l-207 164l-258 -164zM416 430q0 -86 50 -138t134 -52q92 0 153.5 69.5t61.5 173.5q0 90 -48 141.5 t-132 51.5q-94 0 -156.5 -71t-62.5 -175z" />
<glyph unicode="&#xf5;" horiz-adv-x="1234" d="M72 455q0 213 156.5 350t400 137t387 -128t143.5 -347q0 -188 -129 -330q-150 -164 -414 -164q-244 0 -394 133.5t-150 348.5zM352 1108q23 129 64 197q63 109 168 108q51 0 129 -43q90 -47 118 -47q53 0 72 96h195q-20 -135 -70 -211q-68 -102 -160 -102q-37 0 -69.5 12 t-130.5 64q-27 14 -56 14q-47 0 -65 -88h-195zM416 430q0 -86 50 -138t134 -52q92 0 153.5 69.5t61.5 173.5q0 90 -48 141.5t-132 51.5q-94 0 -156.5 -71t-62.5 -175z" />
<glyph unicode="&#xf6;" horiz-adv-x="1234" d="M72 455q0 213 156.5 350t400 137t387 -128t143.5 -347q0 -188 -129 -330q-150 -164 -414 -164q-244 0 -394 133.5t-150 348.5zM369 1266q0 66 46 110.5t111.5 44.5t111.5 -47t46 -112.5t-45 -110.5t-110.5 -45t-112.5 46t-47 114zM416 430q0 -86 50 -138t134 -52 q92 0 153.5 69.5t61.5 173.5q0 90 -48 141.5t-132 51.5q-94 0 -156.5 -71t-62.5 -175zM766 1266q0 63 47 109t113 46q63 0 109 -48t46 -113q0 -61 -46 -107.5t-107 -46.5q-66 0 -114 47t-48 113z" />
<glyph unicode="&#xf7;" d="M131 569v254h1024v-254h-1024zM475 295q0 70 48 118t118 48q72 0 121 -49.5t49 -122.5q0 -66 -49 -115t-117 -49q-70 0 -120 50t-50 120zM477 1104q0 68 48 117t118 49q72 0 121 -49.5t49 -122.5q0 -66 -49 -115t-117 -49q-70 0 -120 50t-50 120z" />
<glyph unicode="&#xf8;" horiz-adv-x="1261" d="M4 72l154 121q-43 88 -57.5 139t-14.5 121q0 215 156.5 352t402.5 137q172 0 332 -84l168 133l115 -145l-150 -119q41 -98 52.5 -144t11.5 -110q0 -195 -130 -336q-150 -164 -411 -164q-195 0 -346 95l-172 -138zM412 457q0 -14 8 -72l344 274q-49 33 -117 33 q-98 0 -166.5 -68.5t-68.5 -166.5zM494 254q47 -33 116 -33q102 0 173 72t71 174q0 14 -8 68z" />
<glyph unicode="&#xf9;" horiz-adv-x="1222" d="M113 332q0 63 8 127l57 456h338l-55 -436q-8 -57 -8 -106q0 -119 137 -119q78 0 116.5 42t51.5 142l59 477h338l-59 -483q-31 -256 -138 -348q-127 -111 -389 -111q-217 0 -336.5 94.5t-119.5 264.5zM426 1352l219 127l197 -320l-172 -94z" />
<glyph unicode="&#xfa;" horiz-adv-x="1222" d="M113 332q0 63 8 127l57 456h338l-55 -436q-8 -57 -8 -106q0 -119 137 -119q78 0 116.5 42t51.5 142l59 477h338l-59 -483q-31 -256 -138 -348q-127 -111 -389 -111q-217 0 -336.5 94.5t-119.5 264.5zM565 1198l285 281l166 -183l-320 -231z" />
<glyph unicode="&#xfb;" horiz-adv-x="1222" d="M113 332q0 63 8 127l57 456h338l-55 -436q-8 -57 -8 -106q0 -119 137 -119q78 0 116.5 42t51.5 142l59 477h338l-59 -483q-31 -256 -138 -348q-127 -111 -389 -111q-217 0 -336.5 94.5t-119.5 264.5zM348 1237l397 242l316 -250l-135 -164l-207 164l-258 -164z" />
<glyph unicode="&#xfc;" horiz-adv-x="1222" d="M113 332q0 63 8 127l57 456h338l-55 -436q-8 -57 -8 -106q0 -119 137 -119q78 0 116.5 42t51.5 142l59 477h338l-59 -483q-31 -256 -138 -348q-127 -111 -389 -111q-217 0 -336.5 94.5t-119.5 264.5zM367 1266q0 66 46 110.5t111.5 44.5t111.5 -47t46 -112.5t-46 -110.5 t-110 -45q-66 0 -112.5 46t-46.5 114zM764 1266q0 63 47 109t113 46q63 0 109 -48t46 -113q0 -61 -46 -107.5t-107 -46.5q-66 0 -114 47t-48 113z" />
<glyph unicode="&#xfd;" horiz-adv-x="1230" d="M25 -506l354 578l-324 843h375l98 -247q47 -117 76 -262q41 94 119 221l178 288h385l-883 -1421h-378zM573 1198l285 281l166 -183l-319 -231z" />
<glyph unicode="&#xfe;" horiz-adv-x="1263" d="M4 -506l246 1999h336l-62 -502q-16 -123 -32 -190q90 78 160.5 109.5t158.5 31.5q174 0 275.5 -118.5t101.5 -321.5q0 -238 -120 -383.5t-316 -145.5q-199 0 -330 183l-80 -662h-338zM446 430q0 -86 50.5 -138t134.5 -52q90 0 151.5 69.5t61.5 173.5q0 90 -48 141.5 t-132 51.5q-92 0 -155 -71t-63 -175z" />
<glyph unicode="&#xff;" horiz-adv-x="1230" d="M25 -506l354 578l-324 843h375l98 -247q47 -117 76 -262q41 94 119 221l178 288h385l-883 -1421h-378zM352 1266q0 66 46 110.5t111.5 44.5t112 -47t46.5 -112.5t-45 -110.5t-111 -45t-113 46t-47 114zM750 1266q0 63 47 109t112 46q63 0 109.5 -48t46.5 -113 q0 -61 -46 -107.5t-108 -46.5q-66 0 -113.5 47t-47.5 113z" />
<glyph unicode="&#x152;" horiz-adv-x="2017" d="M104 655q0 317 201 527.5t504 210.5q307 0 471 -238l27 211h739l-37 -301h-424l-29 -236h381l-36 -301h-381l-29 -227h424l-37 -301h-729l18 154q-182 -180 -428 -181q-274 0 -454.5 193.5t-180.5 488.5zM459 657q0 -162 104.5 -259t276.5 -97q168 0 272.5 103.5 t104.5 271.5q0 172 -102.5 280.5t-264.5 108.5q-166 0 -278.5 -117t-112.5 -291z" />
<glyph unicode="&#x153;" horiz-adv-x="1859" d="M72 444q0 223 140 360.5t370 137.5q211 0 360 -137q170 137 373 137q219 0 348 -123q123 -117 123 -352v-74h-668q10 -96 54.5 -139t136.5 -43q100 0 145 68h309q-82 -174 -177 -240t-269 -66q-260 0 -402 150q-170 -150 -380 -150q-209 0 -336 129t-127 342zM416 430 q0 -88 49 -139t133 -51q90 0 151.5 69.5t61.5 171.5q0 90 -48 141.5t-132 51.5q-90 0 -152.5 -71t-62.5 -173zM1153 584h346q-27 145 -166 145q-151 0 -180 -145z" />
<glyph unicode="&#x178;" horiz-adv-x="1275" d="M96 1366h383l94 -219q61 -143 89 -229q27 49 67 108l234 340h421l-596 -768l-73 -598h-346l75 608zM395 1675q0 68 48.5 116t118 48t116.5 -48t47 -120q0 -66 -48 -114t-116 -48q-70 0 -118 48t-48 118zM809 1675.5q0 67.5 48 115.5t118 48q68 0 116 -49t48 -119 q0 -66 -48.5 -114t-113.5 -48q-70 0 -119 49.5t-49 117z" />
<glyph unicode="&#x2c6;" horiz-adv-x="1024" d="M231 1237l398 242l315 -250l-135 -164l-207 164l-258 -164z" />
<glyph unicode="&#x2dc;" horiz-adv-x="1024" d="M236 1108q23 129 63 197q63 109 168 108q51 0 129 -43q90 -47 119 -47q53 0 71 96h195q-20 -135 -70 -211q-68 -102 -159 -102q-37 0 -70 12t-131 64q-27 14 -55 14q-47 0 -66 -88h-194z" />
<glyph unicode="&#x2000;" horiz-adv-x="944" />
<glyph unicode="&#x2001;" horiz-adv-x="1888" />
<glyph unicode="&#x2002;" horiz-adv-x="944" />
<glyph unicode="&#x2003;" horiz-adv-x="1888" />
<glyph unicode="&#x2004;" horiz-adv-x="628" />
<glyph unicode="&#x2005;" horiz-adv-x="471" />
<glyph unicode="&#x2006;" horiz-adv-x="313" />
<glyph unicode="&#x2007;" horiz-adv-x="313" />
<glyph unicode="&#x2008;" horiz-adv-x="235" />
<glyph unicode="&#x2009;" horiz-adv-x="376" />
<glyph unicode="&#x200a;" horiz-adv-x="104" />
<glyph unicode="&#x2010;" horiz-adv-x="520" d="M-16 328l34 286h521l-35 -286h-520z" />
<glyph unicode="&#x2011;" horiz-adv-x="520" d="M-16 328l34 286h521l-35 -286h-520z" />
<glyph unicode="&#x2013;" d="M113 328l34 286h969l-35 -286h-968z" />
<glyph unicode="&#x2014;" horiz-adv-x="1558" d="M-16 328l34 286h1559l-35 -286h-1558z" />
<glyph unicode="&#x2018;" horiz-adv-x="638" d="M125 811l336 582h223l-276 -582h-283z" />
<glyph unicode="&#x2019;" horiz-adv-x="638" d="M125 811l278 582h281l-334 -582h-225z" />
<glyph unicode="&#x201a;" horiz-adv-x="638" d="M-25 -281l279 582h281l-334 -582h-226z" />
<glyph unicode="&#x201c;" horiz-adv-x="1075" d="M125 811l336 582h223l-276 -582h-283zM561 811l336 582h225l-278 -582h-283z" />
<glyph unicode="&#x201d;" horiz-adv-x="1075" d="M125 811l278 582h281l-334 -582h-225zM561 811l279 582h282l-336 -582h-225z" />
<glyph unicode="&#x201e;" horiz-adv-x="1075" d="M-25 -281l279 582h281l-334 -582h-226zM412 -281l278 582h283l-336 -582h-225z" />
<glyph unicode="&#x2022;" horiz-adv-x="1366" d="M426 692q0 119 84 202t205 83q113 0 195.5 -84t82.5 -199q0 -119 -83 -201.5t-199.5 -82.5t-200.5 82.5t-84 199.5z" />
<glyph unicode="&#x2026;" horiz-adv-x="1832" d="M63 182q0 86 60.5 146.5t144.5 60.5q90 0 150.5 -61.5t60.5 -151.5q0 -82 -60.5 -142.5t-144.5 -60.5q-86 0 -148.5 62.5t-62.5 146.5zM674 182q0 86 60.5 146.5t144.5 60.5q90 0 150.5 -61.5t60.5 -151.5q0 -82 -60.5 -142.5t-144.5 -60.5q-86 0 -148.5 62.5 t-62.5 146.5zM1286 182q0 86 60.5 146.5t144.5 60.5q90 0 150.5 -61.5t60.5 -151.5q0 -82 -60.5 -142.5t-144.5 -60.5q-86 0 -148.5 62.5t-62.5 146.5z" />
<glyph unicode="&#x202f;" horiz-adv-x="376" />
<glyph unicode="&#x2039;" horiz-adv-x="655" d="M78 539l377 364l127 -131l-256 -250l215 -329l-166 -113z" />
<glyph unicode="&#x203a;" horiz-adv-x="655" d="M84 238l256 249l-215 332l166 113l297 -461l-377 -365z" />
<glyph unicode="&#x205f;" horiz-adv-x="471" />
<glyph unicode="&#x20ac;" horiz-adv-x="1460" d="M49 598l88 176h121q39 283 248 452t518 169q256 0 438 -125l-164 -330q-102 127 -290 127q-145 0 -253 -80t-141 -213h607l-88 -174h-523q27 -139 127.5 -219t249.5 -80q172 0 281 105l-31 -402q-119 -31 -246 -31q-311 0 -510.5 169t-228.5 456h-203z" />
<glyph unicode="&#x2122;" horiz-adv-x="1724" d="M82 1174l24 192h582l-22 -192h-172l-74 -586h-234l72 586h-176zM633 588l258 778h227l66 -262q23 -92 33 -150l221 412h235l35 -778h-235l-15 416l-223 -416h-129l-76 299q-12 47 -26 131q-10 -47 -25 -94l-105 -336h-241z" />
</font>
</defs>
</svg>
